<svg baseProfile="full" height="238" version="1.1" width="862" xmlns="http://www.w3.org/2000/svg" xmlns:ev="http://www.w3.org/2001/xml-events" xmlns:xlink="http://www.w3.org/1999/xlink"><defs /><rect fill="#0D1117" height="238" width="862" x="0" y="0" /><text fill="#C9D1D9" font-family="Arial, sans-serif" font-size="22px" font-weight="bold" text-anchor="middle" x="431" y="35">Commit Activity Heatmap - markhazleton</text><text fill="#30363D" font-family="Arial, sans-serif" font-size="10px" text-anchor="end" x="45" y="104">Mon</text><text fill="#30363D" font-family="Arial, sans-serif" font-size="10px" text-anchor="end" x="45" y="132">Wed</text><text fill="#30363D" font-family="Arial, sans-serif" font-size="10px" text-anchor="end" x="45" y="160">Fri</text><rect fill="#30363D" height="12" opacity="0.1" rx="2" width="12" x="80" y="150" /><rect fill="#30363D" height="12" opacity="0.1" rx="2" width="12" x="80" y="164" /><rect fill="#0EA5E9" height="12" opacity="0.3333333333333333" rx="2" width="12" x="94" y="80" /><rect fill="#30363D" height="12" opacity="0.1" rx="2" width="12" x="94" y="94" /><rect fill="#0EA5E9" height="12" opacity="0.3333333333333333" rx="2" width="12" x="94" y="108" /><rect fill="#30363D" height="12" opacity="0.1" rx="2" width="12" x="94" y="122" /><rect fill="#30363D" height="12" opacity="0.1" rx="2" width="12" x="94" y="136" /><rect fill="#30363D" height="12" opacity="0.1" rx="2" width="12" x="94" y="150" /><rect fill="#30363D" height="12" opacity="0.1" rx="2" width="12" x="94" y="164" /><rect fill="#30363D" height="12" opacity="0.1" rx="2" width="12" x="108" y="80" /><rect fill="#0EA5E9" height="12" opacity="0.31666666666666665" rx="2" width="12" x="108" y="94" /><rect fill="#0EA5E9" height="12" opacity="0.31666666666666665" rx="2" width="12" x="108" y="108" /><rect fill="#30363D" height="12" opacity="0.1" rx="2" width="12" x="108" y="122" /><rect fill="#30363D" height="12" opacity="0.1" rx="2" width="12" x="108" y="136" /><rect fill="#30363D" height="12" opacity="0.1" rx="2" width="12" x="108" y="150" /><rect fill="#30363D" height="12" opacity="0.1" rx="2" width="12" x="108" y="164" /><rect fill="#30363D" height="12" opacity="0.1" rx="2" width="12" x="122" y="80" /><rect fill="#30363D" height="12" opacity="0.1" rx="2" width="12" x="122" y="94" /><rect fill="#30363D" height="12" opacity="0.1" rx="2" width="12" x="122" y="108" /><rect fill="#30363D" height="12" opacity="0.1" rx="2" width="12" x="122" y="122" /><rect fill="#30363D" height="12" opacity="0.1" rx="2" width="12" x="122" y="136" /><rect fill="#30363D" height="12" opacity="0.1" rx="2" width="12" x="122" y="150" /><rect fill="#30363D" height="12" opacity="0.1" rx="2" width="12" x="122" y="164" /><rect fill="#30363D" height="12" opacity="0.1" rx="2" width="12" x="136" y="80" /><rect fill="#30363D" height="12" opacity="0.1" rx="2" width="12" x="136" y="94" /><rect fill="#30363D" height="12" opacity="0.1" rx="2" width="12" x="136" y="108" /><rect fill="#30363D" height="12" opacity="0.1" rx="2" width="12" x="136" y="122" /><rect fill="#30363D" height="12" opacity="0.1" rx="2" width="12" x="136" y="136" /><rect fill="#30363D" height="12" opacity="0.1" rx="2" width="12" x="136" y="150" /><rect fill="#30363D" height="12" opacity="0.1" rx="2" width="12" x="136" y="164" /><rect fill="#30363D" height="12" opacity="0.1" rx="2" width="12" x="150" y="80" /><rect fill="#30363D" height="12" opacity="0.1" rx="2" width="12" x="150" y="94" /><rect fill="#30363D" height="12" opacity="0.1" rx="2" width="12" x="150" y="108" /><rect fill="#30363D" height="12" opacity="0.1" rx="2" width="12" x="150" y="122" /><rect fill="#30363D" height="12" opacity="0.1" rx="2" width="12" x="150" y="136" /><rect fill="#30363D" height="12" opacity="0.1" rx="2" width="12" x="150" y="150" /><rect fill="#30363D" height="12" opacity="0.1" rx="2" width="12" x="150" y="164" /><rect fill="#30363D" height="12" opacity="0.1" rx="2" width="12" x="164" y="80" /><rect fill="#30363D" height="12" opacity="0.1" rx="2" width="12" x="164" y="94" /><rect fill="#30363D" height="12" opacity="0.1" rx="2" width="12" x="164" y="108" /><rect fill="#30363D" height="12" opacity="0.1" rx="2" width="12" x="164" y="122" /><rect fill="#30363D" height="12" opacity="0.1" rx="2" width="12" x="164" y="136" /><rect fill="#30363D" height="12" opacity="0.1" rx="2" width="12" x="164" y="150" /><rect fill="#30363D" height="12" opacity="0.1" rx="2" width="12" x="164" y="164" /><rect fill="#30363D" height="12" opacity="0.1" rx="2" width="12" x="178" y="80" /><rect fill="#30363D" height="12" opacity="0.1" rx="2" width="12" x="178" y="94" /><rect fill="#30363D" height="12" opacity="0.1" rx="2" width="12" x="178" y="108" /><rect fill="#0EA5E9" height="12" opacity="0.35" rx="2" width="12" x="178" y="122" /><rect fill="#30363D" height="12" opacity="0.1" rx="2" width="12" x="178" y="136" /><rect fill="#0EA5E9" height="12" opacity="0.31666666666666665" rx="2" width="12" x="178" y="150" /><rect fill="#30363D" height="12" opacity="0.1" rx="2" width="12" x="178" y="164" /><rect fill="#30363D" height="12" opacity="0.1" rx="2" width="12" x="192" y="80" /><rect fill="#30363D" height="12" opacity="0.1" rx="2" width="12" x="192" y="94" /><rect fill="#30363D" height="12" opacity="0.1" rx="2" width="12" x="192" y="108" /><rect fill="#30363D" height="12" opacity="0.1" rx="2" width="12" x="192" y="122" /><rect fill="#30363D" height="12" opacity="0.1" rx="2" width="12" x="192" y="136" /><rect fill="#30363D" height="12" opacity="0.1" rx="2" width="12" x="192" y="150" /><rect fill="#30363D" height="12" opacity="0.1" rx="2" width="12" x="192" y="164" /><rect fill="#30363D" height="12" opacity="0.1" rx="2" width="12" x="206" y="80" /><rect fill="#30363D" height="12" opacity="0.1" rx="2" width="12" x="206" y="94" /><rect fill="#30363D" height="12" opacity="0.1" rx="2" width="12" x="206" y="108" /><rect fill="#30363D" height="12" opacity="0.1" rx="2" width="12" x="206" y="122" /><rect fill="#30363D" height="12" opacity="0.1" rx="2" width="12" x="206" y="136" /><rect fill="#0EA5E9" height="12" opacity="0.31666666666666665" rx="2" width="12" x="206" y="150" /><rect fill="#0EA5E9" height="12" opacity="0.3833333333333333" rx="2" width="12" x="206" y="164" /><rect fill="#30363D" height="12" opacity="0.1" rx="2" width="12" x="220" y="80" /><rect fill="#30363D" height="12" opacity="0.1" rx="2" width="12" x="220" y="94" /><rect fill="#30363D" height="12" opacity="0.1" rx="2" width="12" x="220" y="108" /><rect fill="#30363D" height="12" opacity="0.1" rx="2" width="12" x="220" y="122" /><rect fill="#30363D" height="12" opacity="0.1" rx="2" width="12" x="220" y="136" /><rect fill="#30363D" height="12" opacity="0.1" rx="2" width="12" x="220" y="150" /><rect fill="#30363D" height="12" opacity="0.1" rx="2" width="12" x="220" y="164" /><rect fill="#30363D" height="12" opacity="0.1" rx="2" width="12" x="234" y="80" /><rect fill="#0EA5E9" height="12" opacity="0.31666666666666665" rx="2" width="12" x="234" y="94" /><rect fill="#30363D" height="12" opacity="0.1" rx="2" width="12" x="234" y="108" /><rect fill="#30363D" height="12" opacity="0.1" rx="2" width="12" x="234" y="122" /><rect fill="#0EA5E9" height="12" opacity="0.36666666666666664" rx="2" width="12" x="234" y="136" /><rect fill="#0EA5E9" height="12" opacity="0.31666666666666665" rx="2" width="12" x="234" y="150" /><rect fill="#30363D" height="12" opacity="0.1" rx="2" width="12" x="234" y="164" /><rect fill="#0EA5E9" height="12" opacity="0.35" rx="2" width="12" x="248" y="80" /><rect fill="#0EA5E9" height="12" opacity="0.31666666666666665" rx="2" width="12" x="248" y="94" /><rect fill="#30363D" height="12" opacity="0.1" rx="2" width="12" x="248" y="108" /><rect fill="#30363D" height="12" opacity="0.1" rx="2" width="12" x="248" y="122" /><rect fill="#30363D" height="12" opacity="0.1" rx="2" width="12" x="248" y="136" /><rect fill="#30363D" height="12" opacity="0.1" rx="2" width="12" x="248" y="150" /><rect fill="#30363D" height="12" opacity="0.1" rx="2" width="12" x="248" y="164" /><rect fill="#30363D" height="12" opacity="0.1" rx="2" width="12" x="262" y="80" /><rect fill="#30363D" height="12" opacity="0.1" rx="2" width="12" x="262" y="94" /><rect fill="#30363D" height="12" opacity="0.1" rx="2" width="12" x="262" y="108" /><rect fill="#30363D" height="12" opacity="0.1" rx="2" width="12" x="262" y="122" /><rect fill="#30363D" height="12" opacity="0.1" rx="2" width="12" x="262" y="136" /><rect fill="#30363D" height="12" opacity="0.1" rx="2" width="12" x="262" y="150" /><rect fill="#0EA5E9" height="12" opacity="0.31666666666666665" rx="2" width="12" x="262" y="164" /><rect fill="#0EA5E9" height="12" opacity="0.6" rx="2" width="12" x="276" y="80" /><rect fill="#0EA5E9" height="12" opacity="0.44999999999999996" rx="2" width="12" x="276" y="94" /><rect fill="#0EA5E9" height="12" opacity="0.41666666666666663" rx="2" width="12" x="276" y="108" /><rect fill="#0EA5E9" height="12" opacity="0.7333333333333334" rx="2" width="12" x="276" y="122" /><rect fill="#0EA5E9" height="12" opacity="0.31666666666666665" rx="2" width="12" x="276" y="136" /><rect fill="#0EA5E9" height="12" opacity="0.36666666666666664" rx="2" width="12" x="276" y="150" /><rect fill="#30363D" height="12" opacity="0.1" rx="2" width="12" x="276" y="164" /><rect fill="#30363D" height="12" opacity="0.1" rx="2" width="12" x="290" y="80" /><rect fill="#30363D" height="12" opacity="0.1" rx="2" width="12" x="290" y="94" /><rect fill="#0EA5E9" height="12" opacity="0.41666666666666663" rx="2" width="12" x="290" y="108" /><rect fill="#30363D" height="12" opacity="0.1" rx="2" width="12" x="290" y="122" /><rect fill="#30363D" height="12" opacity="0.1" rx="2" width="12" x="290" y="136" /><rect fill="#0EA5E9" height="12" opacity="0.31666666666666665" rx="2" width="12" x="290" y="150" /><rect fill="#30363D" height="12" opacity="0.1" rx="2" width="12" x="290" y="164" /><rect fill="#0EA5E9" height="12" opacity="0.3333333333333333" rx="2" width="12" x="304" y="80" /><rect fill="#0EA5E9" height="12" opacity="0.36666666666666664" rx="2" width="12" x="304" y="94" /><rect fill="#30363D" height="12" opacity="0.1" rx="2" width="12" x="304" y="108" /><rect fill="#30363D" height="12" opacity="0.1" rx="2" width="12" x="304" y="122" /><rect fill="#30363D" height="12" opacity="0.1" rx="2" width="12" x="304" y="136" /><rect fill="#30363D" height="12" opacity="0.1" rx="2" width="12" x="304" y="150" /><rect fill="#0EA5E9" height="12" opacity="0.8166666666666667" rx="2" width="12" x="304" y="164" /><rect fill="#0EA5E9" height="12" opacity="0.7" rx="2" width="12" x="318" y="80" /><rect fill="#0EA5E9" height="12" opacity="0.3833333333333333" rx="2" width="12" x="318" y="94" /><rect fill="#30363D" height="12" opacity="0.1" rx="2" width="12" x="318" y="108" /><rect fill="#30363D" height="12" opacity="0.1" rx="2" width="12" x="318" y="122" /><rect fill="#0EA5E9" height="12" opacity="0.35" rx="2" width="12" x="318" y="136" /><rect fill="#30363D" height="12" opacity="0.1" rx="2" width="12" x="318" y="150" /><rect fill="#0EA5E9" height="12" opacity="0.31666666666666665" rx="2" width="12" x="318" y="164" /><rect fill="#30363D" height="12" opacity="0.1" rx="2" width="12" x="332" y="80" /><rect fill="#0EA5E9" height="12" opacity="0.3333333333333333" rx="2" width="12" x="332" y="94" /><rect fill="#0EA5E9" height="12" opacity="0.39999999999999997" rx="2" width="12" x="332" y="108" /><rect fill="#30363D" height="12" opacity="0.1" rx="2" width="12" x="332" y="122" /><rect fill="#0EA5E9" height="12" opacity="0.36666666666666664" rx="2" width="12" x="332" y="136" /><rect fill="#30363D" height="12" opacity="0.1" rx="2" width="12" x="332" y="150" /><rect fill="#30363D" height="12" opacity="0.1" rx="2" width="12" x="332" y="164" /><rect fill="#0EA5E9" height="12" opacity="0.31666666666666665" rx="2" width="12" x="346" y="80" /><rect fill="#0EA5E9" height="12" opacity="0.5333333333333333" rx="2" width="12" x="346" y="94" /><rect fill="#0EA5E9" height="12" opacity="0.5333333333333333" rx="2" width="12" x="346" y="108" /><rect fill="#0EA5E9" height="12" opacity="0.3333333333333333" rx="2" width="12" x="346" y="122" /><rect fill="#30363D" height="12" opacity="0.1" rx="2" width="12" x="346" y="136" /><rect fill="#30363D" height="12" opacity="0.1" rx="2" width="12" x="346" y="150" /><rect fill="#0EA5E9" height="12" opacity="0.36666666666666664" rx="2" width="12" x="346" y="164" /><rect fill="#0EA5E9" height="12" opacity="0.3333333333333333" rx="2" width="12" x="360" y="80" /><rect fill="#0EA5E9" height="12" opacity="0.3333333333333333" rx="2" width="12" x="360" y="94" /><rect fill="#0EA5E9" height="12" opacity="0.39999999999999997" rx="2" width="12" x="360" y="108" /><rect fill="#30363D" height="12" opacity="0.1" rx="2" width="12" x="360" y="122" /><rect fill="#30363D" height="12" opacity="0.1" rx="2" width="12" x="360" y="136" /><rect fill="#0EA5E9" height="12" opacity="0.35" rx="2" width="12" x="360" y="150" /><rect fill="#0EA5E9" height="12" opacity="0.36666666666666664" rx="2" width="12" x="360" y="164" /><rect fill="#0EA5E9" height="12" opacity="0.31666666666666665" rx="2" width="12" x="374" y="80" /><rect fill="#0EA5E9" height="12" opacity="0.3833333333333333" rx="2" width="12" x="374" y="94" /><rect fill="#30363D" height="12" opacity="0.1" rx="2" width="12" x="374" y="108" /><rect fill="#0EA5E9" height="12" opacity="0.3333333333333333" rx="2" width="12" x="374" y="122" /><rect fill="#0EA5E9" height="12" opacity="0.3833333333333333" rx="2" width="12" x="374" y="136" /><rect fill="#0EA5E9" height="12" opacity="0.31666666666666665" rx="2" width="12" x="374" y="150" /><rect fill="#0EA5E9" height="12" opacity="0.35" rx="2" width="12" x="374" y="164" /><rect fill="#0EA5E9" height="12" opacity="0.31666666666666665" rx="2" width="12" x="388" y="80" /><rect fill="#0EA5E9" height="12" opacity="0.31666666666666665" rx="2" width="12" x="388" y="94" /><rect fill="#30363D" height="12" opacity="0.1" rx="2" width="12" x="388" y="108" /><rect fill="#30363D" height="12" opacity="0.1" rx="2" width="12" x="388" y="122" /><rect fill="#30363D" height="12" opacity="0.1" rx="2" width="12" x="388" y="136" /><rect fill="#30363D" height="12" opacity="0.1" rx="2" width="12" x="388" y="150" /><rect fill="#30363D" height="12" opacity="0.1" rx="2" width="12" x="388" y="164" /><rect fill="#30363D" height="12" opacity="0.1" rx="2" width="12" x="402" y="80" /><rect fill="#30363D" height="12" opacity="0.1" rx="2" width="12" x="402" y="94" /><rect fill="#30363D" height="12" opacity="0.1" rx="2" width="12" x="402" y="108" /><rect fill="#30363D" height="12" opacity="0.1" rx="2" width="12" x="402" y="122" /><rect fill="#0EA5E9" height="12" opacity="0.41666666666666663" rx="2" width="12" x="402" y="136" /><rect fill="#0EA5E9" height="12" opacity="0.6" rx="2" width="12" x="402" y="150" /><rect fill="#0EA5E9" height="12" opacity="0.35" rx="2" width="12" x="402" y="164" /><rect fill="#30363D" height="12" opacity="0.1" rx="2" width="12" x="416" y="80" /><rect fill="#30363D" height="12" opacity="0.1" rx="2" width="12" x="416" y="94" /><rect fill="#30363D" height="12" opacity="0.1" rx="2" width="12" x="416" y="108" /><rect fill="#0EA5E9" height="12" opacity="0.31666666666666665" rx="2" width="12" x="416" y="122" /><rect fill="#0EA5E9" height="12" opacity="0.3333333333333333" rx="2" width="12" x="416" y="136" /><rect fill="#30363D" height="12" opacity="0.1" rx="2" width="12" x="416" y="150" /><rect fill="#30363D" height="12" opacity="0.1" rx="2" width="12" x="416" y="164" /><rect fill="#30363D" height="12" opacity="0.1" rx="2" width="12" x="430" y="80" /><rect fill="#30363D" height="12" opacity="0.1" rx="2" width="12" x="430" y="94" /><rect fill="#0EA5E9" height="12" opacity="0.4666666666666667" rx="2" width="12" x="430" y="108" /><rect fill="#0EA5E9" height="12" opacity="0.35" rx="2" width="12" x="430" y="122" /><rect fill="#0EA5E9" height="12" opacity="0.55" rx="2" width="12" x="430" y="136" /><rect fill="#30363D" height="12" opacity="0.1" rx="2" width="12" x="430" y="150" /><rect fill="#30363D" height="12" opacity="0.1" rx="2" width="12" x="430" y="164" /><rect fill="#30363D" height="12" opacity="0.1" rx="2" width="12" x="444" y="80" /><rect fill="#0EA5E9" height="12" opacity="0.31666666666666665" rx="2" width="12" x="444" y="94" /><rect fill="#0EA5E9" height="12" opacity="0.31666666666666665" rx="2" width="12" x="444" y="108" /><rect fill="#0EA5E9" height="12" opacity="0.31666666666666665" rx="2" width="12" x="444" y="122" /><rect fill="#30363D" height="12" opacity="0.1" rx="2" width="12" x="444" y="136" /><rect fill="#30363D" height="12" opacity="0.1" rx="2" width="12" x="444" y="150" /><rect fill="#30363D" height="12" opacity="0.1" rx="2" width="12" x="444" y="164" /><rect fill="#30363D" height="12" opacity="0.1" rx="2" width="12" x="458" y="80" /><rect fill="#0EA5E9" height="12" opacity="0.35" rx="2" width="12" x="458" y="94" /><rect fill="#0EA5E9" height="12" opacity="0.31666666666666665" rx="2" width="12" x="458" y="108" /><rect fill="#0EA5E9" height="12" opacity="0.39999999999999997" rx="2" width="12" x="458" y="122" /><rect fill="#30363D" height="12" opacity="0.1" rx="2" width="12" x="458" y="136" /><rect fill="#30363D" height="12" opacity="0.1" rx="2" width="12" x="458" y="150" /><rect fill="#30363D" height="12" opacity="0.1" rx="2" width="12" x="458" y="164" /><rect fill="#30363D" height="12" opacity="0.1" rx="2" width="12" x="472" y="80" /><rect fill="#0EA5E9" height="12" opacity="0.39999999999999997" rx="2" width="12" x="472" y="94" /><rect fill="#30363D" height="12" opacity="0.1" rx="2" width="12" x="472" y="108" /><rect fill="#30363D" height="12" opacity="0.1" rx="2" width="12" x="472" y="122" /><rect fill="#30363D" height="12" opacity="0.1" rx="2" width="12" x="472" y="136" /><rect fill="#30363D" height="12" opacity="0.1" rx="2" width="12" x="472" y="150" /><rect fill="#0EA5E9" height="12" opacity="0.6" rx="2" width="12" x="472" y="164" /><rect fill="#0EA5E9" height="12" opacity="0.5333333333333333" rx="2" width="12" x="486" y="80" /><rect fill="#0EA5E9" height="12" opacity="0.41666666666666663" rx="2" width="12" x="486" y="94" /><rect fill="#0EA5E9" height="12" opacity="0.6499999999999999" rx="2" width="12" x="486" y="108" /><rect fill="#0EA5E9" height="12" opacity="0.3333333333333333" rx="2" width="12" x="486" y="122" /><rect fill="#0EA5E9" height="12" opacity="0.36666666666666664" rx="2" width="12" x="486" y="136" /><rect fill="#0EA5E9" height="12" opacity="0.5333333333333333" rx="2" width="12" x="486" y="150" /><rect fill="#30363D" height="12" opacity="0.1" rx="2" width="12" x="486" y="164" /><rect fill="#0EA5E9" height="12" opacity="0.31666666666666665" rx="2" width="12" x="500" y="80" /><rect fill="#30363D" height="12" opacity="0.1" rx="2" width="12" x="500" y="94" /><rect fill="#0EA5E9" height="12" opacity="0.44999999999999996" rx="2" width="12" x="500" y="108" /><rect fill="#0EA5E9" height="12" opacity="0.35" rx="2" width="12" x="500" y="122" /><rect fill="#0EA5E9" height="12" opacity="0.31666666666666665" rx="2" width="12" x="500" y="136" /><rect fill="#0EA5E9" height="12" opacity="0.31666666666666665" rx="2" width="12" x="500" y="150" /><rect fill="#0EA5E9" height="12" opacity="0.5666666666666667" rx="2" width="12" x="500" y="164" /><rect fill="#0EA5E9" height="12" opacity="0.55" rx="2" width="12" x="514" y="80" /><rect fill="#0EA5E9" height="12" opacity="0.6666666666666666" rx="2" width="12" x="514" y="94" /><rect fill="#0EA5E9" height="12" opacity="0.39999999999999997" rx="2" width="12" x="514" y="108" /><rect fill="#0EA5E9" height="12" opacity="0.3333333333333333" rx="2" width="12" x="514" y="122" /><rect fill="#30363D" height="12" opacity="0.1" rx="2" width="12" x="514" y="136" /><rect fill="#30363D" height="12" opacity="0.1" rx="2" width="12" x="514" y="150" /><rect fill="#0EA5E9" height="12" opacity="0.6166666666666667" rx="2" width="12" x="514" y="164" /><rect fill="#0EA5E9" height="12" opacity="0.4833333333333333" rx="2" width="12" x="528" y="80" /><rect fill="#0EA5E9" height="12" opacity="0.31666666666666665" rx="2" width="12" x="528" y="94" /><rect fill="#30363D" height="12" opacity="0.1" rx="2" width="12" x="528" y="108" /><rect fill="#0EA5E9" height="12" opacity="0.31666666666666665" rx="2" width="12" x="528" y="122" /><rect fill="#0EA5E9" height="12" opacity="0.3333333333333333" rx="2" width="12" x="528" y="136" /><rect fill="#0EA5E9" height="12" opacity="0.31666666666666665" rx="2" width="12" x="528" y="150" /><rect fill="#30363D" height="12" opacity="0.1" rx="2" width="12" x="528" y="164" /><rect fill="#30363D" height="12" opacity="0.1" rx="2" width="12" x="542" y="80" /><rect fill="#30363D" height="12" opacity="0.1" rx="2" width="12" x="542" y="94" /><rect fill="#30363D" height="12" opacity="0.1" rx="2" width="12" x="542" y="108" /><rect fill="#30363D" height="12" opacity="0.1" rx="2" width="12" x="542" y="122" /><rect fill="#30363D" height="12" opacity="0.1" rx="2" width="12" x="542" y="136" /><rect fill="#0EA5E9" height="12" opacity="0.31666666666666665" rx="2" width="12" x="542" y="150" /><rect fill="#0EA5E9" height="12" opacity="0.31666666666666665" rx="2" width="12" x="542" y="164" /><rect fill="#0EA5E9" height="12" opacity="0.31666666666666665" rx="2" width="12" x="556" y="80" /><rect fill="#0EA5E9" height="12" opacity="0.31666666666666665" rx="2" width="12" x="556" y="94" /><rect fill="#0EA5E9" height="12" opacity="0.36666666666666664" rx="2" width="12" x="556" y="108" /><rect fill="#0EA5E9" height="12" opacity="0.6499999999999999" rx="2" width="12" x="556" y="122" /><rect fill="#0EA5E9" height="12" opacity="0.5666666666666667" rx="2" width="12" x="556" y="136" /><rect fill="#30363D" height="12" opacity="0.1" rx="2" width="12" x="556" y="150" /><rect fill="#0EA5E9" height="12" opacity="0.7666666666666666" rx="2" width="12" x="556" y="164" /><rect fill="#0EA5E9" height="12" opacity="0.7333333333333334" rx="2" width="12" x="570" y="80" /><rect fill="#0EA5E9" height="12" opacity="0.4333333333333333" rx="2" width="12" x="570" y="94" /><rect fill="#0EA5E9" height="12" opacity="0.36666666666666664" rx="2" width="12" x="570" y="108" /><rect fill="#30363D" height="12" opacity="0.1" rx="2" width="12" x="570" y="122" /><rect fill="#30363D" height="12" opacity="0.1" rx="2" width="12" x="570" y="136" /><rect fill="#0EA5E9" height="12" opacity="0.35" rx="2" width="12" x="570" y="150" /><rect fill="#0EA5E9" height="12" opacity="0.31666666666666665" rx="2" width="12" x="570" y="164" /><rect fill="#0EA5E9" height="12" opacity="0.6499999999999999" rx="2" width="12" x="584" y="80" /><rect fill="#0EA5E9" height="12" opacity="0.36666666666666664" rx="2" width="12" x="584" y="94" /><rect fill="#30363D" height="12" opacity="0.1" rx="2" width="12" x="584" y="108" /><rect fill="#30363D" height="12" opacity="0.1" rx="2" width="12" x="584" y="122" /><rect fill="#30363D" height="12" opacity="0.1" rx="2" width="12" x="584" y="136" /><rect fill="#30363D" height="12" opacity="0.1" rx="2" width="12" x="584" y="150" /><rect fill="#30363D" height="12" opacity="0.1" rx="2" width="12" x="584" y="164" /><rect fill="#30363D" height="12" opacity="0.1" rx="2" width="12" x="598" y="80" /><rect fill="#30363D" height="12" opacity="0.1" rx="2" width="12" x="598" y="94" /><rect fill="#30363D" height="12" opacity="0.1" rx="2" width="12" x="598" y="108" /><rect fill="#30363D" height="12" opacity="0.1" rx="2" width="12" x="598" y="122" /><rect fill="#30363D" height="12" opacity="0.1" rx="2" width="12" x="598" y="136" /><rect fill="#0EA5E9" height="12" opacity="0.39999999999999997" rx="2" width="12" x="598" y="150" /><rect fill="#0EA5E9" height="12" opacity="0.5" rx="2" width="12" x="598" y="164" /><rect fill="#0EA5E9" height="12" opacity="0.44999999999999996" rx="2" width="12" x="612" y="80" /><rect fill="#0EA5E9" height="12" opacity="0.36666666666666664" rx="2" width="12" x="612" y="94" /><rect fill="#0EA5E9" height="12" opacity="0.5833333333333333" rx="2" width="12" x="612" y="108" /><rect fill="#0EA5E9" height="12" opacity="0.35" rx="2" width="12" x="612" y="122" /><rect fill="#0EA5E9" height="12" opacity="0.31666666666666665" rx="2" width="12" x="612" y="136" /><rect fill="#0EA5E9" height="12" opacity="0.5" rx="2" width="12" x="612" y="150" /><rect fill="#0EA5E9" height="12" opacity="0.3833333333333333" rx="2" width="12" x="612" y="164" /><rect fill="#0EA5E9" height="12" opacity="0.39999999999999997" rx="2" width="12" x="626" y="80" /><rect fill="#0EA5E9" height="12" opacity="0.3833333333333333" rx="2" width="12" x="626" y="94" /><rect fill="#0EA5E9" height="12" opacity="0.36666666666666664" rx="2" width="12" x="626" y="108" /><rect fill="#0EA5E9" height="12" opacity="0.5833333333333333" rx="2" width="12" x="626" y="122" /><rect fill="#30363D" height="12" opacity="0.1" rx="2" width="12" x="626" y="136" /><rect fill="#0EA5E9" height="12" opacity="0.3833333333333333" rx="2" width="12" x="626" y="150" /><rect fill="#30363D" height="12" opacity="0.1" rx="2" width="12" x="626" y="164" /><rect fill="#0EA5E9" height="12" opacity="0.41666666666666663" rx="2" width="12" x="640" y="80" /><rect fill="#0EA5E9" height="12" opacity="0.4833333333333333" rx="2" width="12" x="640" y="94" /><rect fill="#0EA5E9" height="12" opacity="0.5333333333333333" rx="2" width="12" x="640" y="108" /><rect fill="#30363D" height="12" opacity="0.1" rx="2" width="12" x="640" y="122" /><rect fill="#30363D" height="12" opacity="0.1" rx="2" width="12" x="640" y="136" /><rect fill="#30363D" height="12" opacity="0.1" rx="2" width="12" x="640" y="150" /><rect fill="#30363D" height="12" opacity="0.1" rx="2" width="12" x="640" y="164" /><rect fill="#0EA5E9" height="12" opacity="0.35" rx="2" width="12" x="654" y="80" /><rect fill="#30363D" height="12" opacity="0.1" rx="2" width="12" x="654" y="94" /><rect fill="#0EA5E9" height="12" opacity="0.36666666666666664" rx="2" width="12" x="654" y="108" /><rect fill="#0EA5E9" height="12" opacity="0.3333333333333333" rx="2" width="12" x="654" y="122" /><rect fill="#0EA5E9" height="12" opacity="0.4833333333333333" rx="2" width="12" x="654" y="136" /><rect fill="#0EA5E9" height="12" opacity="0.36666666666666664" rx="2" width="12" x="654" y="150" /><rect fill="#0EA5E9" height="12" opacity="0.31666666666666665" rx="2" width="12" x="654" y="164" /><rect fill="#0EA5E9" height="12" opacity="0.3833333333333333" rx="2" width="12" x="668" y="80" /><rect fill="#0EA5E9" height="12" opacity="0.3333333333333333" rx="2" width="12" x="668" y="94" /><rect fill="#30363D" height="12" opacity="0.1" rx="2" width="12" x="668" y="108" /><rect fill="#0EA5E9" height="12" opacity="0.36666666666666664" rx="2" width="12" x="668" y="122" /><rect fill="#30363D" height="12" opacity="0.1" rx="2" width="12" x="668" y="136" /><rect fill="#30363D" height="12" opacity="0.1" rx="2" width="12" x="668" y="150" /><rect fill="#0EA5E9" height="12" opacity="0.7666666666666666" rx="2" width="12" x="668" y="164" /><rect fill="#0EA5E9" height="12" opacity="0.5833333333333333" rx="2" width="12" x="682" y="80" /><rect fill="#0EA5E9" height="12" opacity="0.8666666666666667" rx="2" width="12" x="682" y="94" /><rect fill="#30363D" height="12" opacity="0.1" rx="2" width="12" x="682" y="108" /><rect fill="#0EA5E9" height="12" opacity="0.3833333333333333" rx="2" width="12" x="682" y="122" /><rect fill="#30363D" height="12" opacity="0.1" rx="2" width="12" x="682" y="136" /><rect fill="#30363D" height="12" opacity="0.1" rx="2" width="12" x="682" y="150" /><rect fill="#30363D" height="12" opacity="0.1" rx="2" width="12" x="682" y="164" /><rect fill="#30363D" height="12" opacity="0.1" rx="2" width="12" x="696" y="80" /><rect fill="#30363D" height="12" opacity="0.1" rx="2" width="12" x="696" y="94" /><rect fill="#30363D" height="12" opacity="0.1" rx="2" width="12" x="696" y="108" /><rect fill="#0EA5E9" height="12" opacity="0.7666666666666666" rx="2" width="12" x="696" y="122" /><rect fill="#0EA5E9" height="12" opacity="0.5166666666666666" rx="2" width="12" x="696" y="136" /><rect fill="#30363D" height="12" opacity="0.1" rx="2" width="12" x="696" y="150" /><rect fill="#0EA5E9" height="12" opacity="0.4333333333333333" rx="2" width="12" x="696" y="164" /><rect fill="#0EA5E9" height="12" opacity="1.0" rx="2" width="12" x="710" y="80" /><rect fill="#0EA5E9" height="12" opacity="0.5333333333333333" rx="2" width="12" x="710" y="94" /><rect fill="#0EA5E9" height="12" opacity="0.36666666666666664" rx="2" width="12" x="710" y="108" /><rect fill="#0EA5E9" height="12" opacity="0.31666666666666665" rx="2" width="12" x="710" y="122" /><rect fill="#0EA5E9" height="12" opacity="0.41666666666666663" rx="2" width="12" x="710" y="136" /><rect fill="#0EA5E9" height="12" opacity="0.7166666666666666" rx="2" width="12" x="710" y="150" /><rect fill="#0EA5E9" height="12" opacity="0.3333333333333333" rx="2" width="12" x="710" y="164" /><rect fill="#0EA5E9" height="12" opacity="0.31666666666666665" rx="2" width="12" x="724" y="80" /><rect fill="#30363D" height="12" opacity="0.1" rx="2" width="12" x="724" y="94" /><rect fill="#30363D" height="12" opacity="0.1" rx="2" width="12" x="724" y="108" /><rect fill="#30363D" height="12" opacity="0.1" rx="2" width="12" x="724" y="122" /><rect fill="#0EA5E9" height="12" opacity="0.36666666666666664" rx="2" width="12" x="724" y="136" /><rect fill="#30363D" height="12" opacity="0.1" rx="2" width="12" x="724" y="150" /><rect fill="#30363D" height="12" opacity="0.1" rx="2" width="12" x="724" y="164" /><rect fill="#30363D" height="12" opacity="0.1" rx="2" width="12" x="738" y="80" /><rect fill="#0EA5E9" height="12" opacity="0.31666666666666665" rx="2" width="12" x="738" y="94" /><rect fill="#0EA5E9" height="12" opacity="0.3833333333333333" rx="2" width="12" x="738" y="108" /><rect fill="#0EA5E9" height="12" opacity="0.6" rx="2" width="12" x="738" y="122" /><rect fill="#0EA5E9" height="12" opacity="0.4833333333333333" rx="2" width="12" x="738" y="136" /><rect fill="#30363D" height="12" opacity="0.1" rx="2" width="12" x="738" y="150" /><rect fill="#0EA5E9" height="12" opacity="0.3333333333333333" rx="2" width="12" x="738" y="164" /><rect fill="#0EA5E9" height="12" opacity="0.7" rx="2" width="12" x="752" y="80" /><rect fill="#0EA5E9" height="12" opacity="0.31666666666666665" rx="2" width="12" x="752" y="94" /><rect fill="#0EA5E9" height="12" opacity="0.31666666666666665" rx="2" width="12" x="752" y="108" /><rect fill="#30363D" height="12" opacity="0.1" rx="2" width="12" x="752" y="122" /><rect fill="#30363D" height="12" opacity="0.1" rx="2" width="12" x="752" y="136" /><rect fill="#30363D" height="12" opacity="0.1" rx="2" width="12" x="752" y="150" /><rect fill="#30363D" height="12" opacity="0.1" rx="2" width="12" x="752" y="164" /><rect fill="#0EA5E9" height="12" opacity="0.35" rx="2" width="12" x="766" y="80" /><rect fill="#0EA5E9" height="12" opacity="0.5833333333333333" rx="2" width="12" x="766" y="94" /><rect fill="#0EA5E9" height="12" opacity="0.31666666666666665" rx="2" width="12" x="766" y="108" /><rect fill="#30363D" height="12" opacity="0.1" rx="2" width="12" x="766" y="122" /><rect fill="#0EA5E9" height="12" opacity="0.5166666666666666" rx="2" width="12" x="766" y="136" /><rect fill="#30363D" height="12" opacity="0.1" rx="2" width="12" x="766" y="150" /><rect fill="#30363D" height="12" opacity="0.1" rx="2" width="12" x="766" y="164" /><rect fill="#30363D" height="12" opacity="0.1" rx="2" width="12" x="780" y="80" /><rect fill="#30363D" height="12" opacity="0.1" rx="2" width="12" x="780" y="94" /><rect fill="#0EA5E9" height="12" opacity="0.55" rx="2" width="12" x="780" y="108" /><rect fill="#30363D" height="12" opacity="0.1" rx="2" width="12" x="780" y="122" /><rect fill="#0EA5E9" height="12" opacity="0.3833333333333333" rx="2" width="12" x="780" y="136" /><rect fill="#0EA5E9" height="12" opacity="0.41666666666666663" rx="2" width="12" x="780" y="150" /><rect fill="#0EA5E9" height="12" opacity="0.4333333333333333" rx="2" width="12" x="780" y="164" /><rect fill="#0EA5E9" height="12" opacity="0.5166666666666666" rx="2" width="12" x="794" y="80" /><rect fill="#0EA5E9" height="12" opacity="0.4833333333333333" rx="2" width="12" x="794" y="94" /><rect fill="#0EA5E9" height="12" opacity="0.44999999999999996" rx="2" width="12" x="794" y="108" /><rect fill="#30363D" height="12" opacity="0.1" rx="2" width="12" x="794" y="122" /><rect fill="#0EA5E9" height="12" opacity="0.31666666666666665" rx="2" width="12" x="794" y="136" /><rect fill="#0EA5E9" height="12" opacity="0.7166666666666666" rx="2" width="12" x="794" y="150" /><rect fill="#0EA5E9" height="12" opacity="0.7" rx="2" width="12" x="794" y="164" /><rect fill="#0EA5E9" height="12" opacity="0.4333333333333333" rx="2" width="12" x="808" y="80" /><rect fill="#0EA5E9" height="12" opacity="0.6666666666666666" rx="2" width="12" x="808" y="94" /><rect fill="#0EA5E9" height="12" opacity="0.35" rx="2" width="12" x="808" y="108" /><rect fill="#0EA5E9" height="12" opacity="0.36666666666666664" rx="2" width="12" x="808" y="122" /><rect fill="#30363D" height="12" opacity="0.1" rx="2" width="12" x="808" y="136" /><rect fill="#30363D" height="12" opacity="0.1" rx="2" width="12" x="808" y="150" /><text fill="#30363D" font-family="Arial, sans-serif" font-size="10px" x="80" y="215">Less</text><rect fill="#0EA5E9" height="12" opacity="0.2" rx="2" width="12" x="115" y="203" /><rect fill="#0EA5E9" height="12" opacity="0.4" rx="2" width="12" x="131" y="203" /><rect fill="#0EA5E9" height="12" opacity="0.6000000000000001" rx="2" width="12" x="147" y="203" /><rect fill="#0EA5E9" height="12" opacity="0.8" rx="2" width="12" x="163" y="203" /><rect fill="#0EA5E9" height="12" opacity="1.0" rx="2" width="12" x="179" y="203" /><text fill="#30363D" font-family="Arial, sans-serif" font-size="10px" x="200" y="215">More</text><text fill="#30363D" font-family="Arial, sans-serif" font-size="10px" opacity="0.7" text-anchor="end" x="852" y="228">⚡ Generated with Stats Spark</text></svg>