<svg baseProfile="full" height="200" version="1.1" width="900" xmlns="http://www.w3.org/2000/svg" xmlns:ev="http://www.w3.org/2001/xml-events" xmlns:xlink="http://www.w3.org/1999/xlink"><defs /><rect fill="#0D1117" height="200" width="900" x="0" y="0" /><text fill="#C9D1D9" font-family="Arial, sans-serif" font-size="20px" font-weight="bold" text-anchor="middle" x="450" y="30">Commit Activity Heatmap - markhazleton</text><rect fill="#0EA5E9" height="12" opacity="0.2" rx="2" width="12" x="50" y="60" /><rect fill="#0EA5E9" height="12" opacity="0.36" rx="2" width="12" x="50" y="74" /><rect fill="#0EA5E9" height="12" opacity="0.52" rx="2" width="12" x="50" y="88" /><rect fill="#0EA5E9" height="12" opacity="0.6800000000000002" rx="2" width="12" x="50" y="102" /><rect fill="#0EA5E9" height="12" opacity="0.8400000000000001" rx="2" width="12" x="50" y="116" /><rect fill="#0EA5E9" height="12" opacity="0.2" rx="2" width="12" x="50" y="130" /><rect fill="#0EA5E9" height="12" opacity="0.36" rx="2" width="12" x="50" y="144" /><rect fill="#0EA5E9" height="12" opacity="0.36" rx="2" width="12" x="64" y="60" /><rect fill="#0EA5E9" height="12" opacity="0.52" rx="2" width="12" x="64" y="74" /><rect fill="#0EA5E9" height="12" opacity="0.6800000000000002" rx="2" width="12" x="64" y="88" /><rect fill="#0EA5E9" height="12" opacity="0.8400000000000001" rx="2" width="12" x="64" y="102" /><rect fill="#0EA5E9" height="12" opacity="0.2" rx="2" width="12" x="64" y="116" /><rect fill="#0EA5E9" height="12" opacity="0.36" rx="2" width="12" x="64" y="130" /><rect fill="#0EA5E9" height="12" opacity="0.52" rx="2" width="12" x="64" y="144" /><rect fill="#0EA5E9" height="12" opacity="0.52" rx="2" width="12" x="78" y="60" /><rect fill="#0EA5E9" height="12" opacity="0.6800000000000002" rx="2" width="12" x="78" y="74" /><rect fill="#0EA5E9" height="12" opacity="0.8400000000000001" rx="2" width="12" x="78" y="88" /><rect fill="#0EA5E9" height="12" opacity="0.2" rx="2" width="12" x="78" y="102" /><rect fill="#0EA5E9" height="12" opacity="0.36" rx="2" width="12" x="78" y="116" /><rect fill="#0EA5E9" height="12" opacity="0.52" rx="2" width="12" x="78" y="130" /><rect fill="#0EA5E9" height="12" opacity="0.6800000000000002" rx="2" width="12" x="78" y="144" /><rect fill="#0EA5E9" height="12" opacity="0.6800000000000002" rx="2" width="12" x="92" y="60" /><rect fill="#0EA5E9" height="12" opacity="0.8400000000000001" rx="2" width="12" x="92" y="74" /><rect fill="#0EA5E9" height="12" opacity="0.2" rx="2" width="12" x="92" y="88" /><rect fill="#0EA5E9" height="12" opacity="0.36" rx="2" width="12" x="92" y="102" /><rect fill="#0EA5E9" height="12" opacity="0.52" rx="2" width="12" x="92" y="116" /><rect fill="#0EA5E9" height="12" opacity="0.6800000000000002" rx="2" width="12" x="92" y="130" /><rect fill="#0EA5E9" height="12" opacity="0.8400000000000001" rx="2" width="12" x="92" y="144" /><rect fill="#0EA5E9" height="12" opacity="0.8400000000000001" rx="2" width="12" x="106" y="60" /><rect fill="#0EA5E9" height="12" opacity="0.2" rx="2" width="12" x="106" y="74" /><rect fill="#0EA5E9" height="12" opacity="0.36" rx="2" width="12" x="106" y="88" /><rect fill="#0EA5E9" height="12" opacity="0.52" rx="2" width="12" x="106" y="102" /><rect fill="#0EA5E9" height="12" opacity="0.6800000000000002" rx="2" width="12" x="106" y="116" /><rect fill="#0EA5E9" height="12" opacity="0.8400000000000001" rx="2" width="12" x="106" y="130" /><rect fill="#0EA5E9" height="12" opacity="0.2" rx="2" width="12" x="106" y="144" /><rect fill="#0EA5E9" height="12" opacity="0.2" rx="2" width="12" x="120" y="60" /><rect fill="#0EA5E9" height="12" opacity="0.36" rx="2" width="12" x="120" y="74" /><rect fill="#0EA5E9" height="12" opacity="0.52" rx="2" width="12" x="120" y="88" /><rect fill="#0EA5E9" height="12" opacity="0.6800000000000002" rx="2" width="12" x="120" y="102" /><rect fill="#0EA5E9" height="12" opacity="0.8400000000000001" rx="2" width="12" x="120" y="116" /><rect fill="#0EA5E9" height="12" opacity="0.2" rx="2" width="12" x="120" y="130" /><rect fill="#0EA5E9" height="12" opacity="0.36" rx="2" width="12" x="120" y="144" /><rect fill="#0EA5E9" height="12" opacity="0.36" rx="2" width="12" x="134" y="60" /><rect fill="#0EA5E9" height="12" opacity="0.52" rx="2" width="12" x="134" y="74" /><rect fill="#0EA5E9" height="12" opacity="0.6800000000000002" rx="2" width="12" x="134" y="88" /><rect fill="#0EA5E9" height="12" opacity="0.8400000000000001" rx="2" width="12" x="134" y="102" /><rect fill="#0EA5E9" height="12" opacity="0.2" rx="2" width="12" x="134" y="116" /><rect fill="#0EA5E9" height="12" opacity="0.36" rx="2" width="12" x="134" y="130" /><rect fill="#0EA5E9" height="12" opacity="0.52" rx="2" width="12" x="134" y="144" /><rect fill="#0EA5E9" height="12" opacity="0.52" rx="2" width="12" x="148" y="60" /><rect fill="#0EA5E9" height="12" opacity="0.6800000000000002" rx="2" width="12" x="148" y="74" /><rect fill="#0EA5E9" height="12" opacity="0.8400000000000001" rx="2" width="12" x="148" y="88" /><rect fill="#0EA5E9" height="12" opacity="0.2" rx="2" width="12" x="148" y="102" /><rect fill="#0EA5E9" height="12" opacity="0.36" rx="2" width="12" x="148" y="116" /><rect fill="#0EA5E9" height="12" opacity="0.52" rx="2" width="12" x="148" y="130" /><rect fill="#0EA5E9" height="12" opacity="0.6800000000000002" rx="2" width="12" x="148" y="144" /><rect fill="#0EA5E9" height="12" opacity="0.6800000000000002" rx="2" width="12" x="162" y="60" /><rect fill="#0EA5E9" height="12" opacity="0.8400000000000001" rx="2" width="12" x="162" y="74" /><rect fill="#0EA5E9" height="12" opacity="0.2" rx="2" width="12" x="162" y="88" /><rect fill="#0EA5E9" height="12" opacity="0.36" rx="2" width="12" x="162" y="102" /><rect fill="#0EA5E9" height="12" opacity="0.52" rx="2" width="12" x="162" y="116" /><rect fill="#0EA5E9" height="12" opacity="0.6800000000000002" rx="2" width="12" x="162" y="130" /><rect fill="#0EA5E9" height="12" opacity="0.8400000000000001" rx="2" width="12" x="162" y="144" /><rect fill="#0EA5E9" height="12" opacity="0.8400000000000001" rx="2" width="12" x="176" y="60" /><rect fill="#0EA5E9" height="12" opacity="0.2" rx="2" width="12" x="176" y="74" /><rect fill="#0EA5E9" height="12" opacity="0.36" rx="2" width="12" x="176" y="88" /><rect fill="#0EA5E9" height="12" opacity="0.52" rx="2" width="12" x="176" y="102" /><rect fill="#0EA5E9" height="12" opacity="0.6800000000000002" rx="2" width="12" x="176" y="116" /><rect fill="#0EA5E9" height="12" opacity="0.8400000000000001" rx="2" width="12" x="176" y="130" /><rect fill="#0EA5E9" height="12" opacity="0.2" rx="2" width="12" x="176" y="144" /><rect fill="#0EA5E9" height="12" opacity="0.2" rx="2" width="12" x="190" y="60" /><rect fill="#0EA5E9" height="12" opacity="0.36" rx="2" width="12" x="190" y="74" /><rect fill="#0EA5E9" height="12" opacity="0.52" rx="2" width="12" x="190" y="88" /><rect fill="#0EA5E9" height="12" opacity="0.6800000000000002" rx="2" width="12" x="190" y="102" /><rect fill="#0EA5E9" height="12" opacity="0.8400000000000001" rx="2" width="12" x="190" y="116" /><rect fill="#0EA5E9" height="12" opacity="0.2" rx="2" width="12" x="190" y="130" /><rect fill="#0EA5E9" height="12" opacity="0.36" rx="2" width="12" x="190" y="144" /><rect fill="#0EA5E9" height="12" opacity="0.36" rx="2" width="12" x="204" y="60" /><rect fill="#0EA5E9" height="12" opacity="0.52" rx="2" width="12" x="204" y="74" /><rect fill="#0EA5E9" height="12" opacity="0.6800000000000002" rx="2" width="12" x="204" y="88" /><rect fill="#0EA5E9" height="12" opacity="0.8400000000000001" rx="2" width="12" x="204" y="102" /><rect fill="#0EA5E9" height="12" opacity="0.2" rx="2" width="12" x="204" y="116" /><rect fill="#0EA5E9" height="12" opacity="0.36" rx="2" width="12" x="204" y="130" /><rect fill="#0EA5E9" height="12" opacity="0.52" rx="2" width="12" x="204" y="144" /><rect fill="#0EA5E9" height="12" opacity="0.52" rx="2" width="12" x="218" y="60" /><rect fill="#0EA5E9" height="12" opacity="0.6800000000000002" rx="2" width="12" x="218" y="74" /><rect fill="#0EA5E9" height="12" opacity="0.8400000000000001" rx="2" width="12" x="218" y="88" /><rect fill="#0EA5E9" height="12" opacity="0.2" rx="2" width="12" x="218" y="102" /><rect fill="#0EA5E9" height="12" opacity="0.36" rx="2" width="12" x="218" y="116" /><rect fill="#0EA5E9" height="12" opacity="0.52" rx="2" width="12" x="218" y="130" /><rect fill="#0EA5E9" height="12" opacity="0.6800000000000002" rx="2" width="12" x="218" y="144" /><rect fill="#0EA5E9" height="12" opacity="0.6800000000000002" rx="2" width="12" x="232" y="60" /><rect fill="#0EA5E9" height="12" opacity="0.8400000000000001" rx="2" width="12" x="232" y="74" /><rect fill="#0EA5E9" height="12" opacity="0.2" rx="2" width="12" x="232" y="88" /><rect fill="#0EA5E9" height="12" opacity="0.36" rx="2" width="12" x="232" y="102" /><rect fill="#0EA5E9" height="12" opacity="0.52" rx="2" width="12" x="232" y="116" /><rect fill="#0EA5E9" height="12" opacity="0.6800000000000002" rx="2" width="12" x="232" y="130" /><rect fill="#0EA5E9" height="12" opacity="0.8400000000000001" rx="2" width="12" x="232" y="144" /><rect fill="#0EA5E9" height="12" opacity="0.8400000000000001" rx="2" width="12" x="246" y="60" /><rect fill="#0EA5E9" height="12" opacity="0.2" rx="2" width="12" x="246" y="74" /><rect fill="#0EA5E9" height="12" opacity="0.36" rx="2" width="12" x="246" y="88" /><rect fill="#0EA5E9" height="12" opacity="0.52" rx="2" width="12" x="246" y="102" /><rect fill="#0EA5E9" height="12" opacity="0.6800000000000002" rx="2" width="12" x="246" y="116" /><rect fill="#0EA5E9" height="12" opacity="0.8400000000000001" rx="2" width="12" x="246" y="130" /><rect fill="#0EA5E9" height="12" opacity="0.2" rx="2" width="12" x="246" y="144" /><rect fill="#0EA5E9" height="12" opacity="0.2" rx="2" width="12" x="260" y="60" /><rect fill="#0EA5E9" height="12" opacity="0.36" rx="2" width="12" x="260" y="74" /><rect fill="#0EA5E9" height="12" opacity="0.52" rx="2" width="12" x="260" y="88" /><rect fill="#0EA5E9" height="12" opacity="0.6800000000000002" rx="2" width="12" x="260" y="102" /><rect fill="#0EA5E9" height="12" opacity="0.8400000000000001" rx="2" width="12" x="260" y="116" /><rect fill="#0EA5E9" height="12" opacity="0.2" rx="2" width="12" x="260" y="130" /><rect fill="#0EA5E9" height="12" opacity="0.36" rx="2" width="12" x="260" y="144" /><rect fill="#0EA5E9" height="12" opacity="0.36" rx="2" width="12" x="274" y="60" /><rect fill="#0EA5E9" height="12" opacity="0.52" rx="2" width="12" x="274" y="74" /><rect fill="#0EA5E9" height="12" opacity="0.6800000000000002" rx="2" width="12" x="274" y="88" /><rect fill="#0EA5E9" height="12" opacity="0.8400000000000001" rx="2" width="12" x="274" y="102" /><rect fill="#0EA5E9" height="12" opacity="0.2" rx="2" width="12" x="274" y="116" /><rect fill="#0EA5E9" height="12" opacity="0.36" rx="2" width="12" x="274" y="130" /><rect fill="#0EA5E9" height="12" opacity="0.52" rx="2" width="12" x="274" y="144" /><rect fill="#0EA5E9" height="12" opacity="0.52" rx="2" width="12" x="288" y="60" /><rect fill="#0EA5E9" height="12" opacity="0.6800000000000002" rx="2" width="12" x="288" y="74" /><rect fill="#0EA5E9" height="12" opacity="0.8400000000000001" rx="2" width="12" x="288" y="88" /><rect fill="#0EA5E9" height="12" opacity="0.2" rx="2" width="12" x="288" y="102" /><rect fill="#0EA5E9" height="12" opacity="0.36" rx="2" width="12" x="288" y="116" /><rect fill="#0EA5E9" height="12" opacity="0.52" rx="2" width="12" x="288" y="130" /><rect fill="#0EA5E9" height="12" opacity="0.6800000000000002" rx="2" width="12" x="288" y="144" /><rect fill="#0EA5E9" height="12" opacity="0.6800000000000002" rx="2" width="12" x="302" y="60" /><rect fill="#0EA5E9" height="12" opacity="0.8400000000000001" rx="2" width="12" x="302" y="74" /><rect fill="#0EA5E9" height="12" opacity="0.2" rx="2" width="12" x="302" y="88" /><rect fill="#0EA5E9" height="12" opacity="0.36" rx="2" width="12" x="302" y="102" /><rect fill="#0EA5E9" height="12" opacity="0.52" rx="2" width="12" x="302" y="116" /><rect fill="#0EA5E9" height="12" opacity="0.6800000000000002" rx="2" width="12" x="302" y="130" /><rect fill="#0EA5E9" height="12" opacity="0.8400000000000001" rx="2" width="12" x="302" y="144" /><rect fill="#0EA5E9" height="12" opacity="0.8400000000000001" rx="2" width="12" x="316" y="60" /><rect fill="#0EA5E9" height="12" opacity="0.2" rx="2" width="12" x="316" y="74" /><rect fill="#0EA5E9" height="12" opacity="0.36" rx="2" width="12" x="316" y="88" /><rect fill="#0EA5E9" height="12" opacity="0.52" rx="2" width="12" x="316" y="102" /><rect fill="#0EA5E9" height="12" opacity="0.6800000000000002" rx="2" width="12" x="316" y="116" /><rect fill="#0EA5E9" height="12" opacity="0.8400000000000001" rx="2" width="12" x="316" y="130" /><rect fill="#0EA5E9" height="12" opacity="0.2" rx="2" width="12" x="316" y="144" /><rect fill="#0EA5E9" height="12" opacity="0.2" rx="2" width="12" x="330" y="60" /><rect fill="#0EA5E9" height="12" opacity="0.36" rx="2" width="12" x="330" y="74" /><rect fill="#0EA5E9" height="12" opacity="0.52" rx="2" width="12" x="330" y="88" /><rect fill="#0EA5E9" height="12" opacity="0.6800000000000002" rx="2" width="12" x="330" y="102" /><rect fill="#0EA5E9" height="12" opacity="0.8400000000000001" rx="2" width="12" x="330" y="116" /><rect fill="#0EA5E9" height="12" opacity="0.2" rx="2" width="12" x="330" y="130" /><rect fill="#0EA5E9" height="12" opacity="0.36" rx="2" width="12" x="330" y="144" /><rect fill="#0EA5E9" height="12" opacity="0.36" rx="2" width="12" x="344" y="60" /><rect fill="#0EA5E9" height="12" opacity="0.52" rx="2" width="12" x="344" y="74" /><rect fill="#0EA5E9" height="12" opacity="0.6800000000000002" rx="2" width="12" x="344" y="88" /><rect fill="#0EA5E9" height="12" opacity="0.8400000000000001" rx="2" width="12" x="344" y="102" /><rect fill="#0EA5E9" height="12" opacity="0.2" rx="2" width="12" x="344" y="116" /><rect fill="#0EA5E9" height="12" opacity="0.36" rx="2" width="12" x="344" y="130" /><rect fill="#0EA5E9" height="12" opacity="0.52" rx="2" width="12" x="344" y="144" /><rect fill="#0EA5E9" height="12" opacity="0.52" rx="2" width="12" x="358" y="60" /><rect fill="#0EA5E9" height="12" opacity="0.6800000000000002" rx="2" width="12" x="358" y="74" /><rect fill="#0EA5E9" height="12" opacity="0.8400000000000001" rx="2" width="12" x="358" y="88" /><rect fill="#0EA5E9" height="12" opacity="0.2" rx="2" width="12" x="358" y="102" /><rect fill="#0EA5E9" height="12" opacity="0.36" rx="2" width="12" x="358" y="116" /><rect fill="#0EA5E9" height="12" opacity="0.52" rx="2" width="12" x="358" y="130" /><rect fill="#0EA5E9" height="12" opacity="0.6800000000000002" rx="2" width="12" x="358" y="144" /><rect fill="#0EA5E9" height="12" opacity="0.6800000000000002" rx="2" width="12" x="372" y="60" /><rect fill="#0EA5E9" height="12" opacity="0.8400000000000001" rx="2" width="12" x="372" y="74" /><rect fill="#0EA5E9" height="12" opacity="0.2" rx="2" width="12" x="372" y="88" /><rect fill="#0EA5E9" height="12" opacity="0.36" rx="2" width="12" x="372" y="102" /><rect fill="#0EA5E9" height="12" opacity="0.52" rx="2" width="12" x="372" y="116" /><rect fill="#0EA5E9" height="12" opacity="0.6800000000000002" rx="2" width="12" x="372" y="130" /><rect fill="#0EA5E9" height="12" opacity="0.8400000000000001" rx="2" width="12" x="372" y="144" /><rect fill="#0EA5E9" height="12" opacity="0.8400000000000001" rx="2" width="12" x="386" y="60" /><rect fill="#0EA5E9" height="12" opacity="0.2" rx="2" width="12" x="386" y="74" /><rect fill="#0EA5E9" height="12" opacity="0.36" rx="2" width="12" x="386" y="88" /><rect fill="#0EA5E9" height="12" opacity="0.52" rx="2" width="12" x="386" y="102" /><rect fill="#0EA5E9" height="12" opacity="0.6800000000000002" rx="2" width="12" x="386" y="116" /><rect fill="#0EA5E9" height="12" opacity="0.8400000000000001" rx="2" width="12" x="386" y="130" /><rect fill="#0EA5E9" height="12" opacity="0.2" rx="2" width="12" x="386" y="144" /><rect fill="#0EA5E9" height="12" opacity="0.2" rx="2" width="12" x="400" y="60" /><rect fill="#0EA5E9" height="12" opacity="0.36" rx="2" width="12" x="400" y="74" /><rect fill="#0EA5E9" height="12" opacity="0.52" rx="2" width="12" x="400" y="88" /><rect fill="#0EA5E9" height="12" opacity="0.6800000000000002" rx="2" width="12" x="400" y="102" /><rect fill="#0EA5E9" height="12" opacity="0.8400000000000001" rx="2" width="12" x="400" y="116" /><rect fill="#0EA5E9" height="12" opacity="0.2" rx="2" width="12" x="400" y="130" /><rect fill="#0EA5E9" height="12" opacity="0.36" rx="2" width="12" x="400" y="144" /><rect fill="#0EA5E9" height="12" opacity="0.36" rx="2" width="12" x="414" y="60" /><rect fill="#0EA5E9" height="12" opacity="0.52" rx="2" width="12" x="414" y="74" /><rect fill="#0EA5E9" height="12" opacity="0.6800000000000002" rx="2" width="12" x="414" y="88" /><rect fill="#0EA5E9" height="12" opacity="0.8400000000000001" rx="2" width="12" x="414" y="102" /><rect fill="#0EA5E9" height="12" opacity="0.2" rx="2" width="12" x="414" y="116" /><rect fill="#0EA5E9" height="12" opacity="0.36" rx="2" width="12" x="414" y="130" /><rect fill="#0EA5E9" height="12" opacity="0.52" rx="2" width="12" x="414" y="144" /><rect fill="#0EA5E9" height="12" opacity="0.52" rx="2" width="12" x="428" y="60" /><rect fill="#0EA5E9" height="12" opacity="0.6800000000000002" rx="2" width="12" x="428" y="74" /><rect fill="#0EA5E9" height="12" opacity="0.8400000000000001" rx="2" width="12" x="428" y="88" /><rect fill="#0EA5E9" height="12" opacity="0.2" rx="2" width="12" x="428" y="102" /><rect fill="#0EA5E9" height="12" opacity="0.36" rx="2" width="12" x="428" y="116" /><rect fill="#0EA5E9" height="12" opacity="0.52" rx="2" width="12" x="428" y="130" /><rect fill="#0EA5E9" height="12" opacity="0.6800000000000002" rx="2" width="12" x="428" y="144" /><rect fill="#0EA5E9" height="12" opacity="0.6800000000000002" rx="2" width="12" x="442" y="60" /><rect fill="#0EA5E9" height="12" opacity="0.8400000000000001" rx="2" width="12" x="442" y="74" /><rect fill="#0EA5E9" height="12" opacity="0.2" rx="2" width="12" x="442" y="88" /><rect fill="#0EA5E9" height="12" opacity="0.36" rx="2" width="12" x="442" y="102" /><rect fill="#0EA5E9" height="12" opacity="0.52" rx="2" width="12" x="442" y="116" /><rect fill="#0EA5E9" height="12" opacity="0.6800000000000002" rx="2" width="12" x="442" y="130" /><rect fill="#0EA5E9" height="12" opacity="0.8400000000000001" rx="2" width="12" x="442" y="144" /><rect fill="#0EA5E9" height="12" opacity="0.8400000000000001" rx="2" width="12" x="456" y="60" /><rect fill="#0EA5E9" height="12" opacity="0.2" rx="2" width="12" x="456" y="74" /><rect fill="#0EA5E9" height="12" opacity="0.36" rx="2" width="12" x="456" y="88" /><rect fill="#0EA5E9" height="12" opacity="0.52" rx="2" width="12" x="456" y="102" /><rect fill="#0EA5E9" height="12" opacity="0.6800000000000002" rx="2" width="12" x="456" y="116" /><rect fill="#0EA5E9" height="12" opacity="0.8400000000000001" rx="2" width="12" x="456" y="130" /><rect fill="#0EA5E9" height="12" opacity="0.2" rx="2" width="12" x="456" y="144" /><rect fill="#0EA5E9" height="12" opacity="0.2" rx="2" width="12" x="470" y="60" /><rect fill="#0EA5E9" height="12" opacity="0.36" rx="2" width="12" x="470" y="74" /><rect fill="#0EA5E9" height="12" opacity="0.52" rx="2" width="12" x="470" y="88" /><rect fill="#0EA5E9" height="12" opacity="0.6800000000000002" rx="2" width="12" x="470" y="102" /><rect fill="#0EA5E9" height="12" opacity="0.8400000000000001" rx="2" width="12" x="470" y="116" /><rect fill="#0EA5E9" height="12" opacity="0.2" rx="2" width="12" x="470" y="130" /><rect fill="#0EA5E9" height="12" opacity="0.36" rx="2" width="12" x="470" y="144" /><rect fill="#0EA5E9" height="12" opacity="0.36" rx="2" width="12" x="484" y="60" /><rect fill="#0EA5E9" height="12" opacity="0.52" rx="2" width="12" x="484" y="74" /><rect fill="#0EA5E9" height="12" opacity="0.6800000000000002" rx="2" width="12" x="484" y="88" /><rect fill="#0EA5E9" height="12" opacity="0.8400000000000001" rx="2" width="12" x="484" y="102" /><rect fill="#0EA5E9" height="12" opacity="0.2" rx="2" width="12" x="484" y="116" /><rect fill="#0EA5E9" height="12" opacity="0.36" rx="2" width="12" x="484" y="130" /><rect fill="#0EA5E9" height="12" opacity="0.52" rx="2" width="12" x="484" y="144" /><rect fill="#0EA5E9" height="12" opacity="0.52" rx="2" width="12" x="498" y="60" /><rect fill="#0EA5E9" height="12" opacity="0.6800000000000002" rx="2" width="12" x="498" y="74" /><rect fill="#0EA5E9" height="12" opacity="0.8400000000000001" rx="2" width="12" x="498" y="88" /><rect fill="#0EA5E9" height="12" opacity="0.2" rx="2" width="12" x="498" y="102" /><rect fill="#0EA5E9" height="12" opacity="0.36" rx="2" width="12" x="498" y="116" /><rect fill="#0EA5E9" height="12" opacity="0.52" rx="2" width="12" x="498" y="130" /><rect fill="#0EA5E9" height="12" opacity="0.6800000000000002" rx="2" width="12" x="498" y="144" /><rect fill="#0EA5E9" height="12" opacity="0.6800000000000002" rx="2" width="12" x="512" y="60" /><rect fill="#0EA5E9" height="12" opacity="0.8400000000000001" rx="2" width="12" x="512" y="74" /><rect fill="#0EA5E9" height="12" opacity="0.2" rx="2" width="12" x="512" y="88" /><rect fill="#0EA5E9" height="12" opacity="0.36" rx="2" width="12" x="512" y="102" /><rect fill="#0EA5E9" height="12" opacity="0.52" rx="2" width="12" x="512" y="116" /><rect fill="#0EA5E9" height="12" opacity="0.6800000000000002" rx="2" width="12" x="512" y="130" /><rect fill="#0EA5E9" height="12" opacity="0.8400000000000001" rx="2" width="12" x="512" y="144" /><rect fill="#0EA5E9" height="12" opacity="0.8400000000000001" rx="2" width="12" x="526" y="60" /><rect fill="#0EA5E9" height="12" opacity="0.2" rx="2" width="12" x="526" y="74" /><rect fill="#0EA5E9" height="12" opacity="0.36" rx="2" width="12" x="526" y="88" /><rect fill="#0EA5E9" height="12" opacity="0.52" rx="2" width="12" x="526" y="102" /><rect fill="#0EA5E9" height="12" opacity="0.6800000000000002" rx="2" width="12" x="526" y="116" /><rect fill="#0EA5E9" height="12" opacity="0.8400000000000001" rx="2" width="12" x="526" y="130" /><rect fill="#0EA5E9" height="12" opacity="0.2" rx="2" width="12" x="526" y="144" /><rect fill="#0EA5E9" height="12" opacity="0.2" rx="2" width="12" x="540" y="60" /><rect fill="#0EA5E9" height="12" opacity="0.36" rx="2" width="12" x="540" y="74" /><rect fill="#0EA5E9" height="12" opacity="0.52" rx="2" width="12" x="540" y="88" /><rect fill="#0EA5E9" height="12" opacity="0.6800000000000002" rx="2" width="12" x="540" y="102" /><rect fill="#0EA5E9" height="12" opacity="0.8400000000000001" rx="2" width="12" x="540" y="116" /><rect fill="#0EA5E9" height="12" opacity="0.2" rx="2" width="12" x="540" y="130" /><rect fill="#0EA5E9" height="12" opacity="0.36" rx="2" width="12" x="540" y="144" /><rect fill="#0EA5E9" height="12" opacity="0.36" rx="2" width="12" x="554" y="60" /><rect fill="#0EA5E9" height="12" opacity="0.52" rx="2" width="12" x="554" y="74" /><rect fill="#0EA5E9" height="12" opacity="0.6800000000000002" rx="2" width="12" x="554" y="88" /><rect fill="#0EA5E9" height="12" opacity="0.8400000000000001" rx="2" width="12" x="554" y="102" /><rect fill="#0EA5E9" height="12" opacity="0.2" rx="2" width="12" x="554" y="116" /><rect fill="#0EA5E9" height="12" opacity="0.36" rx="2" width="12" x="554" y="130" /><rect fill="#0EA5E9" height="12" opacity="0.52" rx="2" width="12" x="554" y="144" /><rect fill="#0EA5E9" height="12" opacity="0.52" rx="2" width="12" x="568" y="60" /><rect fill="#0EA5E9" height="12" opacity="0.6800000000000002" rx="2" width="12" x="568" y="74" /><rect fill="#0EA5E9" height="12" opacity="0.8400000000000001" rx="2" width="12" x="568" y="88" /><rect fill="#0EA5E9" height="12" opacity="0.2" rx="2" width="12" x="568" y="102" /><rect fill="#0EA5E9" height="12" opacity="0.36" rx="2" width="12" x="568" y="116" /><rect fill="#0EA5E9" height="12" opacity="0.52" rx="2" width="12" x="568" y="130" /><rect fill="#0EA5E9" height="12" opacity="0.6800000000000002" rx="2" width="12" x="568" y="144" /><rect fill="#0EA5E9" height="12" opacity="0.6800000000000002" rx="2" width="12" x="582" y="60" /><rect fill="#0EA5E9" height="12" opacity="0.8400000000000001" rx="2" width="12" x="582" y="74" /><rect fill="#0EA5E9" height="12" opacity="0.2" rx="2" width="12" x="582" y="88" /><rect fill="#0EA5E9" height="12" opacity="0.36" rx="2" width="12" x="582" y="102" /><rect fill="#0EA5E9" height="12" opacity="0.52" rx="2" width="12" x="582" y="116" /><rect fill="#0EA5E9" height="12" opacity="0.6800000000000002" rx="2" width="12" x="582" y="130" /><rect fill="#0EA5E9" height="12" opacity="0.8400000000000001" rx="2" width="12" x="582" y="144" /><rect fill="#0EA5E9" height="12" opacity="0.8400000000000001" rx="2" width="12" x="596" y="60" /><rect fill="#0EA5E9" height="12" opacity="0.2" rx="2" width="12" x="596" y="74" /><rect fill="#0EA5E9" height="12" opacity="0.36" rx="2" width="12" x="596" y="88" /><rect fill="#0EA5E9" height="12" opacity="0.52" rx="2" width="12" x="596" y="102" /><rect fill="#0EA5E9" height="12" opacity="0.6800000000000002" rx="2" width="12" x="596" y="116" /><rect fill="#0EA5E9" height="12" opacity="0.8400000000000001" rx="2" width="12" x="596" y="130" /><rect fill="#0EA5E9" height="12" opacity="0.2" rx="2" width="12" x="596" y="144" /><rect fill="#0EA5E9" height="12" opacity="0.2" rx="2" width="12" x="610" y="60" /><rect fill="#0EA5E9" height="12" opacity="0.36" rx="2" width="12" x="610" y="74" /><rect fill="#0EA5E9" height="12" opacity="0.52" rx="2" width="12" x="610" y="88" /><rect fill="#0EA5E9" height="12" opacity="0.6800000000000002" rx="2" width="12" x="610" y="102" /><rect fill="#0EA5E9" height="12" opacity="0.8400000000000001" rx="2" width="12" x="610" y="116" /><rect fill="#0EA5E9" height="12" opacity="0.2" rx="2" width="12" x="610" y="130" /><rect fill="#0EA5E9" height="12" opacity="0.36" rx="2" width="12" x="610" y="144" /><rect fill="#0EA5E9" height="12" opacity="0.36" rx="2" width="12" x="624" y="60" /><rect fill="#0EA5E9" height="12" opacity="0.52" rx="2" width="12" x="624" y="74" /><rect fill="#0EA5E9" height="12" opacity="0.6800000000000002" rx="2" width="12" x="624" y="88" /><rect fill="#0EA5E9" height="12" opacity="0.8400000000000001" rx="2" width="12" x="624" y="102" /><rect fill="#0EA5E9" height="12" opacity="0.2" rx="2" width="12" x="624" y="116" /><rect fill="#0EA5E9" height="12" opacity="0.36" rx="2" width="12" x="624" y="130" /><rect fill="#0EA5E9" height="12" opacity="0.52" rx="2" width="12" x="624" y="144" /><rect fill="#0EA5E9" height="12" opacity="0.52" rx="2" width="12" x="638" y="60" /><rect fill="#0EA5E9" height="12" opacity="0.6800000000000002" rx="2" width="12" x="638" y="74" /><rect fill="#0EA5E9" height="12" opacity="0.8400000000000001" rx="2" width="12" x="638" y="88" /><rect fill="#0EA5E9" height="12" opacity="0.2" rx="2" width="12" x="638" y="102" /><rect fill="#0EA5E9" height="12" opacity="0.36" rx="2" width="12" x="638" y="116" /><rect fill="#0EA5E9" height="12" opacity="0.52" rx="2" width="12" x="638" y="130" /><rect fill="#0EA5E9" height="12" opacity="0.6800000000000002" rx="2" width="12" x="638" y="144" /><rect fill="#0EA5E9" height="12" opacity="0.6800000000000002" rx="2" width="12" x="652" y="60" /><rect fill="#0EA5E9" height="12" opacity="0.8400000000000001" rx="2" width="12" x="652" y="74" /><rect fill="#0EA5E9" height="12" opacity="0.2" rx="2" width="12" x="652" y="88" /><rect fill="#0EA5E9" height="12" opacity="0.36" rx="2" width="12" x="652" y="102" /><rect fill="#0EA5E9" height="12" opacity="0.52" rx="2" width="12" x="652" y="116" /><rect fill="#0EA5E9" height="12" opacity="0.6800000000000002" rx="2" width="12" x="652" y="130" /><rect fill="#0EA5E9" height="12" opacity="0.8400000000000001" rx="2" width="12" x="652" y="144" /><rect fill="#0EA5E9" height="12" opacity="0.8400000000000001" rx="2" width="12" x="666" y="60" /><rect fill="#0EA5E9" height="12" opacity="0.2" rx="2" width="12" x="666" y="74" /><rect fill="#0EA5E9" height="12" opacity="0.36" rx="2" width="12" x="666" y="88" /><rect fill="#0EA5E9" height="12" opacity="0.52" rx="2" width="12" x="666" y="102" /><rect fill="#0EA5E9" height="12" opacity="0.6800000000000002" rx="2" width="12" x="666" y="116" /><rect fill="#0EA5E9" height="12" opacity="0.8400000000000001" rx="2" width="12" x="666" y="130" /><rect fill="#0EA5E9" height="12" opacity="0.2" rx="2" width="12" x="666" y="144" /><rect fill="#0EA5E9" height="12" opacity="0.2" rx="2" width="12" x="680" y="60" /><rect fill="#0EA5E9" height="12" opacity="0.36" rx="2" width="12" x="680" y="74" /><rect fill="#0EA5E9" height="12" opacity="0.52" rx="2" width="12" x="680" y="88" /><rect fill="#0EA5E9" height="12" opacity="0.6800000000000002" rx="2" width="12" x="680" y="102" /><rect fill="#0EA5E9" height="12" opacity="0.8400000000000001" rx="2" width="12" x="680" y="116" /><rect fill="#0EA5E9" height="12" opacity="0.2" rx="2" width="12" x="680" y="130" /><rect fill="#0EA5E9" height="12" opacity="0.36" rx="2" width="12" x="680" y="144" /><rect fill="#0EA5E9" height="12" opacity="0.36" rx="2" width="12" x="694" y="60" /><rect fill="#0EA5E9" height="12" opacity="0.52" rx="2" width="12" x="694" y="74" /><rect fill="#0EA5E9" height="12" opacity="0.6800000000000002" rx="2" width="12" x="694" y="88" /><rect fill="#0EA5E9" height="12" opacity="0.8400000000000001" rx="2" width="12" x="694" y="102" /><rect fill="#0EA5E9" height="12" opacity="0.2" rx="2" width="12" x="694" y="116" /><rect fill="#0EA5E9" height="12" opacity="0.36" rx="2" width="12" x="694" y="130" /><rect fill="#0EA5E9" height="12" opacity="0.52" rx="2" width="12" x="694" y="144" /><rect fill="#0EA5E9" height="12" opacity="0.52" rx="2" width="12" x="708" y="60" /><rect fill="#0EA5E9" height="12" opacity="0.6800000000000002" rx="2" width="12" x="708" y="74" /><rect fill="#0EA5E9" height="12" opacity="0.8400000000000001" rx="2" width="12" x="708" y="88" /><rect fill="#0EA5E9" height="12" opacity="0.2" rx="2" width="12" x="708" y="102" /><rect fill="#0EA5E9" height="12" opacity="0.36" rx="2" width="12" x="708" y="116" /><rect fill="#0EA5E9" height="12" opacity="0.52" rx="2" width="12" x="708" y="130" /><rect fill="#0EA5E9" height="12" opacity="0.6800000000000002" rx="2" width="12" x="708" y="144" /><rect fill="#0EA5E9" height="12" opacity="0.6800000000000002" rx="2" width="12" x="722" y="60" /><rect fill="#0EA5E9" height="12" opacity="0.8400000000000001" rx="2" width="12" x="722" y="74" /><rect fill="#0EA5E9" height="12" opacity="0.2" rx="2" width="12" x="722" y="88" /><rect fill="#0EA5E9" height="12" opacity="0.36" rx="2" width="12" x="722" y="102" /><rect fill="#0EA5E9" height="12" opacity="0.52" rx="2" width="12" x="722" y="116" /><rect fill="#0EA5E9" height="12" opacity="0.6800000000000002" rx="2" width="12" x="722" y="130" /><rect fill="#0EA5E9" height="12" opacity="0.8400000000000001" rx="2" width="12" x="722" y="144" /><rect fill="#0EA5E9" height="12" opacity="0.8400000000000001" rx="2" width="12" x="736" y="60" /><rect fill="#0EA5E9" height="12" opacity="0.2" rx="2" width="12" x="736" y="74" /><rect fill="#0EA5E9" height="12" opacity="0.36" rx="2" width="12" x="736" y="88" /><rect fill="#0EA5E9" height="12" opacity="0.52" rx="2" width="12" x="736" y="102" /><rect fill="#0EA5E9" height="12" opacity="0.6800000000000002" rx="2" width="12" x="736" y="116" /><rect fill="#0EA5E9" height="12" opacity="0.8400000000000001" rx="2" width="12" x="736" y="130" /><rect fill="#0EA5E9" height="12" opacity="0.2" rx="2" width="12" x="736" y="144" /><rect fill="#0EA5E9" height="12" opacity="0.2" rx="2" width="12" x="750" y="60" /><rect fill="#0EA5E9" height="12" opacity="0.36" rx="2" width="12" x="750" y="74" /><rect fill="#0EA5E9" height="12" opacity="0.52" rx="2" width="12" x="750" y="88" /><rect fill="#0EA5E9" height="12" opacity="0.6800000000000002" rx="2" width="12" x="750" y="102" /><rect fill="#0EA5E9" height="12" opacity="0.8400000000000001" rx="2" width="12" x="750" y="116" /><rect fill="#0EA5E9" height="12" opacity="0.2" rx="2" width="12" x="750" y="130" /><rect fill="#0EA5E9" height="12" opacity="0.36" rx="2" width="12" x="750" y="144" /><rect fill="#0EA5E9" height="12" opacity="0.36" rx="2" width="12" x="764" y="60" /><rect fill="#0EA5E9" height="12" opacity="0.52" rx="2" width="12" x="764" y="74" /><rect fill="#0EA5E9" height="12" opacity="0.6800000000000002" rx="2" width="12" x="764" y="88" /><rect fill="#0EA5E9" height="12" opacity="0.8400000000000001" rx="2" width="12" x="764" y="102" /><rect fill="#0EA5E9" height="12" opacity="0.2" rx="2" width="12" x="764" y="116" /><rect fill="#0EA5E9" height="12" opacity="0.36" rx="2" width="12" x="764" y="130" /><rect fill="#0EA5E9" height="12" opacity="0.52" rx="2" width="12" x="764" y="144" /><text fill="#30363D" font-family="Arial, sans-serif" font-size="10px" opacity="0.7" text-anchor="end" x="890" y="190">⚡ Generated with Stats Spark</text></svg>