<svg baseProfile="full" height="400" version="1.1" width="600" xmlns="http://www.w3.org/2000/svg" xmlns:ev="http://www.w3.org/2001/xml-events" xmlns:xlink="http://www.w3.org/1999/xlink"><defs /><rect fill="#0D1117" height="400" width="600" x="0" y="0" /><text fill="#C9D1D9" font-family="Arial, sans-serif" font-size="20px" font-weight="bold" text-anchor="middle" x="300" y="30">Language Breakdown - markhazleton</text><rect fill="#0EA5E9" height="30" rx="4" width="242" x="100" y="60" /><text fill="#C9D1D9" font-family="Arial, sans-serif" font-size="14px" x="10" y="80">C#</text><text fill="#FCD34D" font-family="Arial, sans-serif" font-size="12px" x="352" y="80">60.6%</text><rect fill="#0EA5E9" height="30" rx="4" width="131" x="100" y="100" /><text fill="#C9D1D9" font-family="Arial, sans-serif" font-size="14px" x="10" y="120">HTML</text><text fill="#FCD34D" font-family="Arial, sans-serif" font-size="12px" x="241" y="120">32.8%</text><rect fill="#0EA5E9" height="30" rx="4" width="14" x="100" y="140" /><text fill="#C9D1D9" font-family="Arial, sans-serif" font-size="14px" x="10" y="160">JavaScript</text><text fill="#FCD34D" font-family="Arial, sans-serif" font-size="12px" x="124" y="160">3.7%</text><rect fill="#0EA5E9" height="30" rx="4" width="6" x="100" y="180" /><text fill="#C9D1D9" font-family="Arial, sans-serif" font-size="14px" x="10" y="200">PowerShell</text><text fill="#FCD34D" font-family="Arial, sans-serif" font-size="12px" x="116" y="200">1.6%</text><rect fill="#0EA5E9" height="30" rx="4" width="4" x="100" y="220" /><text fill="#C9D1D9" font-family="Arial, sans-serif" font-size="14px" x="10" y="240">CSS</text><text fill="#FCD34D" font-family="Arial, sans-serif" font-size="12px" x="114" y="240">1.0%</text><rect fill="#0EA5E9" height="30" rx="4" width="0" x="100" y="260" /><text fill="#C9D1D9" font-family="Arial, sans-serif" font-size="14px" x="10" y="280">Dockerfile</text><text fill="#FCD34D" font-family="Arial, sans-serif" font-size="12px" x="110" y="280">0.2%</text><text fill="#30363D" font-family="Arial, sans-serif" font-size="10px" opacity="0.7" text-anchor="end" x="590" y="390">⚡ Generated with Stats Spark</text></svg>