<svg baseProfile="full" height="400" version="1.1" width="600" xmlns="http://www.w3.org/2000/svg" xmlns:ev="http://www.w3.org/2001/xml-events" xmlns:xlink="http://www.w3.org/1999/xlink"><defs /><rect fill="#0D1117" height="400" width="600" x="0" y="0" /><text fill="#C9D1D9" font-family="Arial, sans-serif" font-size="20px" font-weight="bold" text-anchor="middle" x="300" y="30">Language Breakdown - markhazleton</text><rect fill="#0EA5E9" height="30" rx="4" width="162" x="100" y="60" /><text fill="#C9D1D9" font-family="Arial, sans-serif" font-size="14px" x="10" y="80">C#</text><text fill="#FCD34D" font-family="Arial, sans-serif" font-size="12px" x="272" y="80">40.7%</text><rect fill="#0EA5E9" height="30" rx="4" width="115" x="100" y="100" /><text fill="#C9D1D9" font-family="Arial, sans-serif" font-size="14px" x="10" y="120">JavaScript</text><text fill="#FCD34D" font-family="Arial, sans-serif" font-size="12px" x="225" y="120">28.8%</text><rect fill="#0EA5E9" height="30" rx="4" width="71" x="100" y="140" /><text fill="#C9D1D9" font-family="Arial, sans-serif" font-size="14px" x="10" y="160">HTML</text><text fill="#FCD34D" font-family="Arial, sans-serif" font-size="12px" x="181" y="160">17.9%</text><rect fill="#0EA5E9" height="30" rx="4" width="48" x="100" y="180" /><text fill="#C9D1D9" font-family="Arial, sans-serif" font-size="14px" x="10" y="200">CSS</text><text fill="#FCD34D" font-family="Arial, sans-serif" font-size="12px" x="158" y="200">12.0%</text><rect fill="#0EA5E9" height="30" rx="4" width="1" x="100" y="220" /><text fill="#C9D1D9" font-family="Arial, sans-serif" font-size="14px" x="10" y="240">PowerShell</text><text fill="#FCD34D" font-family="Arial, sans-serif" font-size="12px" x="111" y="240">0.4%</text><rect fill="#0EA5E9" height="30" rx="4" width="0" x="100" y="260" /><text fill="#C9D1D9" font-family="Arial, sans-serif" font-size="14px" x="10" y="280">Dockerfile</text><text fill="#FCD34D" font-family="Arial, sans-serif" font-size="12px" x="110" y="280">0.1%</text><rect fill="#0EA5E9" height="30" rx="4" width="0" x="100" y="300" /><text fill="#C9D1D9" font-family="Arial, sans-serif" font-size="14px" x="10" y="320">Shell</text><text fill="#FCD34D" font-family="Arial, sans-serif" font-size="12px" x="110" y="320">0.0%</text><rect fill="#0EA5E9" height="30" rx="4" width="0" x="100" y="340" /><text fill="#C9D1D9" font-family="Arial, sans-serif" font-size="14px" x="10" y="360">ASP.NET</text><text fill="#FCD34D" font-family="Arial, sans-serif" font-size="12px" x="110" y="360">0.0%</text><rect fill="#0EA5E9" height="30" rx="4" width="0" x="100" y="380" /><text fill="#C9D1D9" font-family="Arial, sans-serif" font-size="14px" x="10" y="400">Batchfile</text><text fill="#FCD34D" font-family="Arial, sans-serif" font-size="12px" x="110" y="400">0.0%</text><rect fill="#0EA5E9" height="30" rx="4" width="0" x="100" y="420" /><text fill="#C9D1D9" font-family="Arial, sans-serif" font-size="14px" x="10" y="440">SCSS</text><text fill="#FCD34D" font-family="Arial, sans-serif" font-size="12px" x="110" y="440">0.0%</text><text fill="#30363D" font-family="Arial, sans-serif" font-size="10px" opacity="0.7" text-anchor="end" x="590" y="390">⚡ Generated with Stats Spark</text></svg>