<svg baseProfile="full" height="400" version="1.1" width="600" xmlns="http://www.w3.org/2000/svg" xmlns:ev="http://www.w3.org/2001/xml-events" xmlns:xlink="http://www.w3.org/1999/xlink"><defs /><rect fill="#0D1117" height="400" width="600" x="0" y="0" /><text fill="#C9D1D9" font-family="Arial, sans-serif" font-size="20px" font-weight="bold" text-anchor="middle" x="300" y="30">Language Breakdown - markhazleton</text><rect fill="#0EA5E9" height="30" rx="4" width="172" x="100" y="60" /><text fill="#C9D1D9" font-family="Arial, sans-serif" font-size="14px" x="10" y="80">C#</text><text fill="#FCD34D" font-family="Arial, sans-serif" font-size="12px" x="282" y="80">43.0%</text><rect fill="#0EA5E9" height="30" rx="4" width="83" x="100" y="100" /><text fill="#C9D1D9" font-family="Arial, sans-serif" font-size="14px" x="10" y="120">HTML</text><text fill="#FCD34D" font-family="Arial, sans-serif" font-size="12px" x="193" y="120">20.8%</text><rect fill="#0EA5E9" height="30" rx="4" width="32" x="100" y="140" /><text fill="#C9D1D9" font-family="Arial, sans-serif" font-size="14px" x="10" y="160">JavaScript</text><text fill="#FCD34D" font-family="Arial, sans-serif" font-size="12px" x="142" y="160">8.2%</text><rect fill="#0EA5E9" height="30" rx="4" width="22" x="100" y="180" /><text fill="#C9D1D9" font-family="Arial, sans-serif" font-size="14px" x="10" y="200">Visual Basic .NET</text><text fill="#FCD34D" font-family="Arial, sans-serif" font-size="12px" x="132" y="200">5.6%</text><rect fill="#0EA5E9" height="30" rx="4" width="22" x="100" y="220" /><text fill="#C9D1D9" font-family="Arial, sans-serif" font-size="14px" x="10" y="240">Pug</text><text fill="#FCD34D" font-family="Arial, sans-serif" font-size="12px" x="132" y="240">5.6%</text><rect fill="#0EA5E9" height="30" rx="4" width="18" x="100" y="260" /><text fill="#C9D1D9" font-family="Arial, sans-serif" font-size="14px" x="10" y="280">TypeScript</text><text fill="#FCD34D" font-family="Arial, sans-serif" font-size="12px" x="128" y="280">4.5%</text><rect fill="#0EA5E9" height="30" rx="4" width="14" x="100" y="300" /><text fill="#C9D1D9" font-family="Arial, sans-serif" font-size="14px" x="10" y="320">CSS</text><text fill="#FCD34D" font-family="Arial, sans-serif" font-size="12px" x="124" y="320">3.7%</text><rect fill="#0EA5E9" height="30" rx="4" width="6" x="100" y="340" /><text fill="#C9D1D9" font-family="Arial, sans-serif" font-size="14px" x="10" y="360">SCSS</text><text fill="#FCD34D" font-family="Arial, sans-serif" font-size="12px" x="116" y="360">1.7%</text><rect fill="#0EA5E9" height="30" rx="4" width="5" x="100" y="380" /><text fill="#C9D1D9" font-family="Arial, sans-serif" font-size="14px" x="10" y="400">PowerShell</text><text fill="#FCD34D" font-family="Arial, sans-serif" font-size="12px" x="115" y="400">1.3%</text><rect fill="#0EA5E9" height="30" rx="4" width="21" x="100" y="420" /><text fill="#C9D1D9" font-family="Arial, sans-serif" font-size="14px" x="10" y="440">Other</text><text fill="#FCD34D" font-family="Arial, sans-serif" font-size="12px" x="131" y="440">5.3%</text><text fill="#30363D" font-family="Arial, sans-serif" font-size="10px" opacity="0.7" text-anchor="end" x="590" y="390">⚡ Generated with Stats Spark</text></svg>