<svg baseProfile="full" height="400" version="1.1" width="600" xmlns="http://www.w3.org/2000/svg" xmlns:ev="http://www.w3.org/2001/xml-events" xmlns:xlink="http://www.w3.org/1999/xlink"><defs /><rect fill="#0D1117" height="400" width="600" x="0" y="0" /><text fill="#C9D1D9" font-family="Arial, sans-serif" font-size="20px" font-weight="bold" text-anchor="middle" x="300" y="30">Language Breakdown - markhazleton</text><rect fill="#0EA5E9" height="30" rx="4" width="158" x="100" y="60" /><text fill="#C9D1D9" font-family="Arial, sans-serif" font-size="14px" x="10" y="80">HTML</text><text fill="#FCD34D" font-family="Arial, sans-serif" font-size="12px" x="268" y="80">39.5%</text><rect fill="#0EA5E9" height="30" rx="4" width="85" x="100" y="100" /><text fill="#C9D1D9" font-family="Arial, sans-serif" font-size="14px" x="10" y="120">C#</text><text fill="#FCD34D" font-family="Arial, sans-serif" font-size="12px" x="195" y="120">21.4%</text><rect fill="#0EA5E9" height="30" rx="4" width="28" x="100" y="140" /><text fill="#C9D1D9" font-family="Arial, sans-serif" font-size="14px" x="10" y="160">JavaScript</text><text fill="#FCD34D" font-family="Arial, sans-serif" font-size="12px" x="138" y="160">7.1%</text><rect fill="#0EA5E9" height="30" rx="4" width="24" x="100" y="180" /><text fill="#C9D1D9" font-family="Arial, sans-serif" font-size="14px" x="10" y="200">Visual Basic .NET</text><text fill="#FCD34D" font-family="Arial, sans-serif" font-size="12px" x="134" y="200">6.1%</text><rect fill="#0EA5E9" height="30" rx="4" width="24" x="100" y="220" /><text fill="#C9D1D9" font-family="Arial, sans-serif" font-size="14px" x="10" y="240">TypeScript</text><text fill="#FCD34D" font-family="Arial, sans-serif" font-size="12px" x="134" y="240">6.0%</text><rect fill="#0EA5E9" height="30" rx="4" width="23" x="100" y="260" /><text fill="#C9D1D9" font-family="Arial, sans-serif" font-size="14px" x="10" y="280">Pug</text><text fill="#FCD34D" font-family="Arial, sans-serif" font-size="12px" x="133" y="280">5.9%</text><rect fill="#0EA5E9" height="30" rx="4" width="15" x="100" y="300" /><text fill="#C9D1D9" font-family="Arial, sans-serif" font-size="14px" x="10" y="320">CSS</text><text fill="#FCD34D" font-family="Arial, sans-serif" font-size="12px" x="125" y="320">3.9%</text><rect fill="#0EA5E9" height="30" rx="4" width="9" x="100" y="340" /><text fill="#C9D1D9" font-family="Arial, sans-serif" font-size="14px" x="10" y="360">Python</text><text fill="#FCD34D" font-family="Arial, sans-serif" font-size="12px" x="119" y="360">2.4%</text><rect fill="#0EA5E9" height="30" rx="4" width="6" x="100" y="380" /><text fill="#C9D1D9" font-family="Arial, sans-serif" font-size="14px" x="10" y="400">PowerShell</text><text fill="#FCD34D" font-family="Arial, sans-serif" font-size="12px" x="116" y="400">1.6%</text><rect fill="#0EA5E9" height="30" rx="4" width="23" x="100" y="420" /><text fill="#C9D1D9" font-family="Arial, sans-serif" font-size="14px" x="10" y="440">Other</text><text fill="#FCD34D" font-family="Arial, sans-serif" font-size="12px" x="133" y="440">5.9%</text><text fill="#30363D" font-family="Arial, sans-serif" font-size="10px" opacity="0.7" text-anchor="end" x="590" y="390">⚡ Generated with Stats Spark</text></svg>