<svg baseProfile="full" height="400" version="1.1" width="600" xmlns="http://www.w3.org/2000/svg" xmlns:ev="http://www.w3.org/2001/xml-events" xmlns:xlink="http://www.w3.org/1999/xlink"><defs /><rect fill="#0D1117" height="400" width="600" x="0" y="0" /><text fill="#C9D1D9" font-family="Arial, sans-serif" font-size="20px" font-weight="bold" text-anchor="middle" x="300" y="30">Language Breakdown - markhazleton</text><rect fill="#0EA5E9" height="30" rx="4" width="170" x="100" y="60" /><text fill="#C9D1D9" font-family="Arial, sans-serif" font-size="14px" x="10" y="80">HTML</text><text fill="#FCD34D" font-family="Arial, sans-serif" font-size="12px" x="280" y="80">42.5%</text><rect fill="#0EA5E9" height="30" rx="4" width="89" x="100" y="100" /><text fill="#C9D1D9" font-family="Arial, sans-serif" font-size="14px" x="10" y="120">C#</text><text fill="#FCD34D" font-family="Arial, sans-serif" font-size="12px" x="199" y="120">22.3%</text><rect fill="#0EA5E9" height="30" rx="4" width="28" x="100" y="140" /><text fill="#C9D1D9" font-family="Arial, sans-serif" font-size="14px" x="10" y="160">TypeScript</text><text fill="#FCD34D" font-family="Arial, sans-serif" font-size="12px" x="138" y="160">7.0%</text><rect fill="#0EA5E9" height="30" rx="4" width="26" x="100" y="180" /><text fill="#C9D1D9" font-family="Arial, sans-serif" font-size="14px" x="10" y="200">JavaScript</text><text fill="#FCD34D" font-family="Arial, sans-serif" font-size="12px" x="136" y="200">6.7%</text><rect fill="#0EA5E9" height="30" rx="4" width="26" x="100" y="220" /><text fill="#C9D1D9" font-family="Arial, sans-serif" font-size="14px" x="10" y="240">Visual Basic .NET</text><text fill="#FCD34D" font-family="Arial, sans-serif" font-size="12px" x="136" y="240">6.7%</text><rect fill="#0EA5E9" height="30" rx="4" width="16" x="100" y="260" /><text fill="#C9D1D9" font-family="Arial, sans-serif" font-size="14px" x="10" y="280">CSS</text><text fill="#FCD34D" font-family="Arial, sans-serif" font-size="12px" x="126" y="280">4.2%</text><rect fill="#0EA5E9" height="30" rx="4" width="9" x="100" y="300" /><text fill="#C9D1D9" font-family="Arial, sans-serif" font-size="14px" x="10" y="320">Python</text><text fill="#FCD34D" font-family="Arial, sans-serif" font-size="12px" x="119" y="320">2.4%</text><rect fill="#0EA5E9" height="30" rx="4" width="6" x="100" y="340" /><text fill="#C9D1D9" font-family="Arial, sans-serif" font-size="14px" x="10" y="360">PowerShell</text><text fill="#FCD34D" font-family="Arial, sans-serif" font-size="12px" x="116" y="360">1.6%</text><rect fill="#0EA5E9" height="30" rx="4" width="6" x="100" y="380" /><text fill="#C9D1D9" font-family="Arial, sans-serif" font-size="14px" x="10" y="400">ASP.NET</text><text fill="#FCD34D" font-family="Arial, sans-serif" font-size="12px" x="116" y="400">1.6%</text><rect fill="#0EA5E9" height="30" rx="4" width="18" x="100" y="420" /><text fill="#C9D1D9" font-family="Arial, sans-serif" font-size="14px" x="10" y="440">Other</text><text fill="#FCD34D" font-family="Arial, sans-serif" font-size="12px" x="128" y="440">4.7%</text><text fill="#30363D" font-family="Arial, sans-serif" font-size="10px" opacity="0.7" text-anchor="end" x="590" y="390">⚡ Generated with Stats Spark</text></svg>