<svg baseProfile="full" height="400" version="1.1" width="800" xmlns="http://www.w3.org/2000/svg" xmlns:ev="http://www.w3.org/2001/xml-events" xmlns:xlink="http://www.w3.org/1999/xlink"><defs /><rect fill="#0D1117" height="400" width="800" x="0" y="0" /><text fill="#C9D1D9" font-family="Arial, sans-serif" font-size="28px" font-weight="bold" text-anchor="middle" x="400" y="40">GitHub Stats - markhazleton</text><circle cx="150" cy="160" fill="#0EA5E9" opacity="0.2" r="60" /><circle cx="150" cy="160" fill="none" r="55" stroke="#0EA5E9" stroke-width="3" /><text fill="#FCD34D" font-family="Arial, sans-serif" font-size="36px" font-weight="bold" text-anchor="middle" x="150" y="170">38.5</text><text fill="#FCD34D" font-family="Arial, sans-serif" font-size="24px" text-anchor="middle" x="150" y="240">⚡⚡</text><text fill="#C9D1D9" font-family="Arial, sans-serif" font-size="14px" x="300" y="120">Total Commits:</text><text fill="#0EA5E9" font-family="Arial, sans-serif" font-size="16px" font-weight="bold" x="450" y="120">587</text><text fill="#C9D1D9" font-family="Arial, sans-serif" font-size="14px" x="300" y="155">Consistency:</text><text fill="#0EA5E9" font-family="Arial, sans-serif" font-size="16px" font-weight="bold" x="450" y="155">31.5/100</text><text fill="#C9D1D9" font-family="Arial, sans-serif" font-size="14px" x="300" y="190">Volume:</text><text fill="#0EA5E9" font-family="Arial, sans-serif" font-size="16px" font-weight="bold" x="450" y="190">55.4/100</text><text fill="#C9D1D9" font-family="Arial, sans-serif" font-size="14px" x="300" y="225">Collaboration:</text><text fill="#0EA5E9" font-family="Arial, sans-serif" font-size="16px" font-weight="bold" x="450" y="225">26.1/100</text><text fill="#C9D1D9" font-family="Arial, sans-serif" font-size="16px" font-weight="bold" x="520" y="120">Top Languages</text><rect fill="#30363D" height="18" rx="2" width="150" x="520" y="138" /><rect fill="#0EA5E9" height="18" rx="2" width="62" x="520" y="138" /><text fill="#C9D1D9" font-family="Arial, sans-serif" font-size="12px" x="680" y="150">HTML 41.8%</text><rect fill="#30363D" height="18" rx="2" width="150" x="520" y="168" /><rect fill="#0EA5E9" height="18" rx="2" width="32" x="520" y="168" /><text fill="#C9D1D9" font-family="Arial, sans-serif" font-size="12px" x="680" y="180">C# 21.7%</text><rect fill="#30363D" height="18" rx="2" width="150" x="520" y="198" /><rect fill="#0EA5E9" height="18" rx="2" width="11" x="520" y="198" /><text fill="#C9D1D9" font-family="Arial, sans-serif" font-size="12px" x="680" y="210">TypeScript 7.9%</text><rect fill="#30363D" height="18" rx="2" width="150" x="520" y="228" /><rect fill="#0EA5E9" height="18" rx="2" width="9" x="520" y="228" /><text fill="#C9D1D9" font-family="Arial, sans-serif" font-size="12px" x="680" y="240">Visual Basic .NET 6.6%</text><text fill="#FCD34D" font-family="Arial, sans-serif" font-size="16px" text-anchor="middle" x="400" y="360">⚖️ Balanced</text><text fill="#30363D" font-family="Arial, sans-serif" font-size="10px" opacity="0.7" text-anchor="end" x="790" y="390">⚡ Generated with Stats Spark</text></svg>