<svg baseProfile="full" height="420" version="1.1" width="900" xmlns="http://www.w3.org/2000/svg" xmlns:ev="http://www.w3.org/2001/xml-events" xmlns:xlink="http://www.w3.org/1999/xlink"><defs /><rect fill="#0D1117" height="420" width="900" x="0" y="0" /><text fill="#C9D1D9" font-family="Arial, sans-serif" font-size="26px" font-weight="bold" text-anchor="middle" x="450" y="40">Release Cadence - markhazleton</text><text fill="#30363D" font-family="Arial, sans-serif" font-size="14px" text-anchor="middle" x="450" y="70">Unique repositories touched in period: 35</text><rect fill="#30363D" height="220" opacity="0.15" rx="16" width="360" x="40" y="100" /><text fill="#C9D1D9" font-family="Arial, sans-serif" font-size="18px" font-weight="bold" x="60" y="130">Weekly Repo Diversity</text><line opacity="0.4" stroke="#30363D" stroke-width="1" x1="60" x2="380" y1="270" y2="270" /><polyline fill="none" points="60.0,225.0 89.0909090909091,150.0 118.18181818181819,225.0 147.27272727272725,210.0 176.36363636363637,240.0 205.45454545454544,225.0 234.54545454545453,225.0 263.6363636363636,225.0 292.72727272727275,217.5 321.8181818181818,202.5 350.9090909090909,232.5 380.0,225.0" stroke="#0EA5E9" stroke-linecap="round" stroke-linejoin="round" stroke-width="3" /><circle cx="60.0" cy="225.0" fill="#FCD34D" r="4"><title>W02: 6 repos</title></circle><circle cx="89.0909090909091" cy="150.0" fill="#FCD34D" r="4"><title>W03: 16 repos</title></circle><circle cx="118.18181818181819" cy="225.0" fill="#FCD34D" r="4"><title>W04: 6 repos</title></circle><circle cx="147.27272727272725" cy="210.0" fill="#FCD34D" r="4"><title>W05: 8 repos</title></circle><circle cx="176.36363636363637" cy="240.0" fill="#FCD34D" r="4"><title>W06: 4 repos</title></circle><circle cx="205.45454545454544" cy="225.0" fill="#FCD34D" r="4"><title>W07: 6 repos</title></circle><circle cx="234.54545454545453" cy="225.0" fill="#FCD34D" r="4"><title>W08: 6 repos</title></circle><circle cx="263.6363636363636" cy="225.0" fill="#FCD34D" r="4"><title>W09: 6 repos</title></circle><circle cx="292.72727272727275" cy="217.5" fill="#FCD34D" r="4"><title>W10: 7 repos</title></circle><circle cx="321.8181818181818" cy="202.5" fill="#FCD34D" r="4"><title>W11: 9 repos</title></circle><circle cx="350.9090909090909" cy="232.5" fill="#FCD34D" r="4"><title>W12: 5 repos</title></circle><circle cx="380.0" cy="225.0" fill="#FCD34D" r="4"><title>W13: 6 repos</title></circle><polygon fill="#0EA5E9" opacity="0.1" points="60.0,225.0 89.0909090909091,150.0 118.18181818181819,225.0 147.27272727272725,210.0 176.36363636363637,240.0 205.45454545454544,225.0 234.54545454545453,225.0 263.6363636363636,225.0 292.72727272727275,217.5 321.8181818181818,202.5 350.9090909090909,232.5 380.0,225.0 380,270 60,270" /><text fill="#C9D1D9" font-family="Arial, sans-serif" font-size="12px" x="60" y="290">W02</text><text fill="#C9D1D9" font-family="Arial, sans-serif" font-size="12px" text-anchor="end" x="380" y="290">W13</text><text fill="#30363D" font-family="Arial, sans-serif" font-size="12px" x="60" y="300">Peak: 16 repos (W03)</text><rect fill="#30363D" height="220" opacity="0.15" rx="16" width="360" x="480" y="100" /><text fill="#C9D1D9" font-family="Arial, sans-serif" font-size="18px" font-weight="bold" x="500" y="130">Monthly Repo Diversity</text><line opacity="0.4" stroke="#30363D" stroke-width="1" x1="500" x2="820" y1="270" y2="270" /><polyline fill="none" points="500.0,241.2 529.0909090909091,202.8 558.1818181818181,246.0 587.2727272727273,207.6 616.3636363636364,231.6 645.4545454545455,193.2 674.5454545454545,217.2 703.6363636363636,207.6 732.7272727272727,188.39999999999998 761.8181818181818,150.0 790.9090909090909,212.4 820.0,212.4" stroke="#0EA5E9" stroke-linecap="round" stroke-linejoin="round" stroke-width="3" /><circle cx="500.0" cy="241.2" fill="#FCD34D" r="4"><title>Apr: 6 repos</title></circle><circle cx="529.0909090909091" cy="202.8" fill="#FCD34D" r="4"><title>May: 14 repos</title></circle><circle cx="558.1818181818181" cy="246.0" fill="#FCD34D" r="4"><title>Jun: 5 repos</title></circle><circle cx="587.2727272727273" cy="207.6" fill="#FCD34D" r="4"><title>Jul: 13 repos</title></circle><circle cx="616.3636363636364" cy="231.6" fill="#FCD34D" r="4"><title>Aug: 8 repos</title></circle><circle cx="645.4545454545455" cy="193.2" fill="#FCD34D" r="4"><title>Sep: 16 repos</title></circle><circle cx="674.5454545454545" cy="217.2" fill="#FCD34D" r="4"><title>Oct: 11 repos</title></circle><circle cx="703.6363636363636" cy="207.6" fill="#FCD34D" r="4"><title>Nov: 13 repos</title></circle><circle cx="732.7272727272727" cy="188.39999999999998" fill="#FCD34D" r="4"><title>Dec: 17 repos</title></circle><circle cx="761.8181818181818" cy="150.0" fill="#FCD34D" r="4"><title>Jan: 25 repos</title></circle><circle cx="790.9090909090909" cy="212.4" fill="#FCD34D" r="4"><title>Feb: 12 repos</title></circle><circle cx="820.0" cy="212.4" fill="#FCD34D" r="4"><title>Mar: 12 repos</title></circle><polygon fill="#0EA5E9" opacity="0.1" points="500.0,241.2 529.0909090909091,202.8 558.1818181818181,246.0 587.2727272727273,207.6 616.3636363636364,231.6 645.4545454545455,193.2 674.5454545454545,217.2 703.6363636363636,207.6 732.7272727272727,188.39999999999998 761.8181818181818,150.0 790.9090909090909,212.4 820.0,212.4 820,270 500,270" /><text fill="#C9D1D9" font-family="Arial, sans-serif" font-size="12px" x="500" y="290">Apr</text><text fill="#C9D1D9" font-family="Arial, sans-serif" font-size="12px" text-anchor="end" x="820" y="290">Mar</text><text fill="#30363D" font-family="Arial, sans-serif" font-size="12px" x="500" y="300">Peak: 25 repos (Jan)</text><text fill="#30363D" font-family="Arial, sans-serif" font-size="10px" opacity="0.7" text-anchor="end" x="890" y="410">⚡ Generated with Stats Spark</text></svg>