<svg baseProfile="full" height="420" version="1.1" width="900" xmlns="http://www.w3.org/2000/svg" xmlns:ev="http://www.w3.org/2001/xml-events" xmlns:xlink="http://www.w3.org/1999/xlink"><defs /><rect fill="#0D1117" height="420" width="900" x="0" y="0" /><text fill="#C9D1D9" font-family="Arial, sans-serif" font-size="26px" font-weight="bold" text-anchor="middle" x="450" y="40">Release Cadence - markhazleton</text><text fill="#30363D" font-family="Arial, sans-serif" font-size="14px" text-anchor="middle" x="450" y="70">Unique repositories touched in period: 15</text><rect fill="#30363D" height="220" opacity="0.15" rx="16" width="360" x="40" y="100" /><text fill="#C9D1D9" font-family="Arial, sans-serif" font-size="18px" font-weight="bold" x="60" y="130">Weekly Repo Diversity</text><line opacity="0.4" stroke="#30363D" stroke-width="1" x1="60" x2="380" y1="270" y2="270" /><polyline fill="none" points="60.0,252.85714285714286 89.0909090909091,235.71428571428572 118.18181818181819,252.85714285714286 147.27272727272725,201.42857142857144 176.36363636363637,252.85714285714286 205.45454545454544,270.0 234.54545454545453,150.0 263.6363636363636,252.85714285714286 292.72727272727275,235.71428571428572 321.8181818181818,235.71428571428572 350.9090909090909,218.57142857142858 380.0,218.57142857142858" stroke="#0EA5E9" stroke-linecap="round" stroke-linejoin="round" stroke-width="3" /><circle cx="60.0" cy="252.85714285714286" fill="#FCD34D" r="4"><title>W43: 1 repos</title></circle><circle cx="89.0909090909091" cy="235.71428571428572" fill="#FCD34D" r="4"><title>W44: 2 repos</title></circle><circle cx="118.18181818181819" cy="252.85714285714286" fill="#FCD34D" r="4"><title>W45: 1 repos</title></circle><circle cx="147.27272727272725" cy="201.42857142857144" fill="#FCD34D" r="4"><title>W46: 4 repos</title></circle><circle cx="176.36363636363637" cy="252.85714285714286" fill="#FCD34D" r="4"><title>W47: 1 repos</title></circle><circle cx="205.45454545454544" cy="270.0" fill="#FCD34D" r="4"><title>W48: 0 repos</title></circle><circle cx="234.54545454545453" cy="150.0" fill="#FCD34D" r="4"><title>W49: 7 repos</title></circle><circle cx="263.6363636363636" cy="252.85714285714286" fill="#FCD34D" r="4"><title>W50: 1 repos</title></circle><circle cx="292.72727272727275" cy="235.71428571428572" fill="#FCD34D" r="4"><title>W51: 2 repos</title></circle><circle cx="321.8181818181818" cy="235.71428571428572" fill="#FCD34D" r="4"><title>W52: 2 repos</title></circle><circle cx="350.9090909090909" cy="218.57142857142858" fill="#FCD34D" r="4"><title>W01: 3 repos</title></circle><circle cx="380.0" cy="218.57142857142858" fill="#FCD34D" r="4"><title>W02: 3 repos</title></circle><polygon fill="#0EA5E9" opacity="0.1" points="60.0,252.85714285714286 89.0909090909091,235.71428571428572 118.18181818181819,252.85714285714286 147.27272727272725,201.42857142857144 176.36363636363637,252.85714285714286 205.45454545454544,270.0 234.54545454545453,150.0 263.6363636363636,252.85714285714286 292.72727272727275,235.71428571428572 321.8181818181818,235.71428571428572 350.9090909090909,218.57142857142858 380.0,218.57142857142858 380,270 60,270" /><text fill="#C9D1D9" font-family="Arial, sans-serif" font-size="12px" x="60" y="290">W43</text><text fill="#C9D1D9" font-family="Arial, sans-serif" font-size="12px" text-anchor="end" x="380" y="290">W02</text><text fill="#30363D" font-family="Arial, sans-serif" font-size="12px" x="60" y="300">Peak: 7 repos (W49)</text><rect fill="#30363D" height="220" opacity="0.15" rx="16" width="360" x="480" y="100" /><text fill="#C9D1D9" font-family="Arial, sans-serif" font-size="18px" font-weight="bold" x="500" y="130">Monthly Repo Diversity</text><line opacity="0.4" stroke="#30363D" stroke-width="1" x1="500" x2="820" y1="270" y2="270" /><polyline fill="none" points="500.0,246.0 529.0909090909091,270.0 558.1818181818181,234.0 587.2727272727273,210.0 616.3636363636364,258.0 645.4545454545455,222.0 674.5454545454545,234.0 703.6363636363636,198.0 732.7272727272727,210.0 761.8181818181818,210.0 790.9090909090909,150.0 820.0,222.0" stroke="#0EA5E9" stroke-linecap="round" stroke-linejoin="round" stroke-width="3" /><circle cx="500.0" cy="246.0" fill="#FCD34D" r="4"><title>Feb: 2 repos</title></circle><circle cx="529.0909090909091" cy="270.0" fill="#FCD34D" r="4"><title>Mar: 0 repos</title></circle><circle cx="558.1818181818181" cy="234.0" fill="#FCD34D" r="4"><title>Apr: 3 repos</title></circle><circle cx="587.2727272727273" cy="210.0" fill="#FCD34D" r="4"><title>May: 5 repos</title></circle><circle cx="616.3636363636364" cy="258.0" fill="#FCD34D" r="4"><title>Jun: 1 repos</title></circle><circle cx="645.4545454545455" cy="222.0" fill="#FCD34D" r="4"><title>Jul: 4 repos</title></circle><circle cx="674.5454545454545" cy="234.0" fill="#FCD34D" r="4"><title>Aug: 3 repos</title></circle><circle cx="703.6363636363636" cy="198.0" fill="#FCD34D" r="4"><title>Sep: 6 repos</title></circle><circle cx="732.7272727272727" cy="210.0" fill="#FCD34D" r="4"><title>Oct: 5 repos</title></circle><circle cx="761.8181818181818" cy="210.0" fill="#FCD34D" r="4"><title>Nov: 5 repos</title></circle><circle cx="790.9090909090909" cy="150.0" fill="#FCD34D" r="4"><title>Dec: 10 repos</title></circle><circle cx="820.0" cy="222.0" fill="#FCD34D" r="4"><title>Jan: 4 repos</title></circle><polygon fill="#0EA5E9" opacity="0.1" points="500.0,246.0 529.0909090909091,270.0 558.1818181818181,234.0 587.2727272727273,210.0 616.3636363636364,258.0 645.4545454545455,222.0 674.5454545454545,234.0 703.6363636363636,198.0 732.7272727272727,210.0 761.8181818181818,210.0 790.9090909090909,150.0 820.0,222.0 820,270 500,270" /><text fill="#C9D1D9" font-family="Arial, sans-serif" font-size="12px" x="500" y="290">Feb</text><text fill="#C9D1D9" font-family="Arial, sans-serif" font-size="12px" text-anchor="end" x="820" y="290">Jan</text><text fill="#30363D" font-family="Arial, sans-serif" font-size="12px" x="500" y="300">Peak: 10 repos (Dec)</text><text fill="#30363D" font-family="Arial, sans-serif" font-size="10px" opacity="0.7" text-anchor="end" x="890" y="410">⚡ Generated with Stats Spark</text></svg>