<svg baseProfile="full" height="420" version="1.1" width="900" xmlns="http://www.w3.org/2000/svg" xmlns:ev="http://www.w3.org/2001/xml-events" xmlns:xlink="http://www.w3.org/1999/xlink"><defs /><rect fill="#0D1117" height="420" width="900" x="0" y="0" /><text fill="#C9D1D9" font-family="Arial, sans-serif" font-size="26px" font-weight="bold" text-anchor="middle" x="450" y="40">Release Cadence - markhazleton</text><text fill="#30363D" font-family="Arial, sans-serif" font-size="14px" text-anchor="middle" x="450" y="70">Unique repositories touched in period: 17</text><rect fill="#30363D" height="220" opacity="0.15" rx="16" width="360" x="40" y="100" /><text fill="#C9D1D9" font-family="Arial, sans-serif" font-size="18px" font-weight="bold" x="60" y="130">Weekly Repo Diversity</text><line opacity="0.4" stroke="#30363D" stroke-width="1" x1="60" x2="380" y1="270" y2="270" /><polyline fill="none" points="60.0,240.0 89.0909090909091,225.0 118.18181818181819,240.0 147.27272727272725,195.0 176.36363636363637,255.0 205.45454545454544,255.0 234.54545454545453,150.0 263.6363636363636,255.0 292.72727272727275,225.0 321.8181818181818,225.0 350.9090909090909,225.0 380.0,210.0" stroke="#0EA5E9" stroke-linecap="round" stroke-linejoin="round" stroke-width="3" /><circle cx="60.0" cy="240.0" fill="#FCD34D" r="4"><title>W43: 2 repos</title></circle><circle cx="89.0909090909091" cy="225.0" fill="#FCD34D" r="4"><title>W44: 3 repos</title></circle><circle cx="118.18181818181819" cy="240.0" fill="#FCD34D" r="4"><title>W45: 2 repos</title></circle><circle cx="147.27272727272725" cy="195.0" fill="#FCD34D" r="4"><title>W46: 5 repos</title></circle><circle cx="176.36363636363637" cy="255.0" fill="#FCD34D" r="4"><title>W47: 1 repos</title></circle><circle cx="205.45454545454544" cy="255.0" fill="#FCD34D" r="4"><title>W48: 1 repos</title></circle><circle cx="234.54545454545453" cy="150.0" fill="#FCD34D" r="4"><title>W49: 8 repos</title></circle><circle cx="263.6363636363636" cy="255.0" fill="#FCD34D" r="4"><title>W50: 1 repos</title></circle><circle cx="292.72727272727275" cy="225.0" fill="#FCD34D" r="4"><title>W51: 3 repos</title></circle><circle cx="321.8181818181818" cy="225.0" fill="#FCD34D" r="4"><title>W52: 3 repos</title></circle><circle cx="350.9090909090909" cy="225.0" fill="#FCD34D" r="4"><title>W01: 3 repos</title></circle><circle cx="380.0" cy="210.0" fill="#FCD34D" r="4"><title>W02: 4 repos</title></circle><polygon fill="#0EA5E9" opacity="0.1" points="60.0,240.0 89.0909090909091,225.0 118.18181818181819,240.0 147.27272727272725,195.0 176.36363636363637,255.0 205.45454545454544,255.0 234.54545454545453,150.0 263.6363636363636,255.0 292.72727272727275,225.0 321.8181818181818,225.0 350.9090909090909,225.0 380.0,210.0 380,270 60,270" /><text fill="#C9D1D9" font-family="Arial, sans-serif" font-size="12px" x="60" y="290">W43</text><text fill="#C9D1D9" font-family="Arial, sans-serif" font-size="12px" text-anchor="end" x="380" y="290">W02</text><text fill="#30363D" font-family="Arial, sans-serif" font-size="12px" x="60" y="300">Peak: 8 repos (W49)</text><rect fill="#30363D" height="220" opacity="0.15" rx="16" width="360" x="480" y="100" /><text fill="#C9D1D9" font-family="Arial, sans-serif" font-size="18px" font-weight="bold" x="500" y="130">Monthly Repo Diversity</text><line opacity="0.4" stroke="#30363D" stroke-width="1" x1="500" x2="820" y1="270" y2="270" /><polyline fill="none" points="500.0,237.27272727272728 529.0909090909091,259.09090909090907 558.1818181818181,226.36363636363637 587.2727272727273,204.54545454545456 616.3636363636364,248.1818181818182 645.4545454545455,204.54545454545456 674.5454545454545,215.45454545454544 703.6363636363636,182.72727272727272 732.7272727272727,193.63636363636363 761.8181818181818,193.63636363636363 790.9090909090909,150.0 820.0,215.45454545454544" stroke="#0EA5E9" stroke-linecap="round" stroke-linejoin="round" stroke-width="3" /><circle cx="500.0" cy="237.27272727272728" fill="#FCD34D" r="4"><title>Feb: 3 repos</title></circle><circle cx="529.0909090909091" cy="259.09090909090907" fill="#FCD34D" r="4"><title>Mar: 1 repos</title></circle><circle cx="558.1818181818181" cy="226.36363636363637" fill="#FCD34D" r="4"><title>Apr: 4 repos</title></circle><circle cx="587.2727272727273" cy="204.54545454545456" fill="#FCD34D" r="4"><title>May: 6 repos</title></circle><circle cx="616.3636363636364" cy="248.1818181818182" fill="#FCD34D" r="4"><title>Jun: 2 repos</title></circle><circle cx="645.4545454545455" cy="204.54545454545456" fill="#FCD34D" r="4"><title>Jul: 6 repos</title></circle><circle cx="674.5454545454545" cy="215.45454545454544" fill="#FCD34D" r="4"><title>Aug: 5 repos</title></circle><circle cx="703.6363636363636" cy="182.72727272727272" fill="#FCD34D" r="4"><title>Sep: 8 repos</title></circle><circle cx="732.7272727272727" cy="193.63636363636363" fill="#FCD34D" r="4"><title>Oct: 7 repos</title></circle><circle cx="761.8181818181818" cy="193.63636363636363" fill="#FCD34D" r="4"><title>Nov: 7 repos</title></circle><circle cx="790.9090909090909" cy="150.0" fill="#FCD34D" r="4"><title>Dec: 11 repos</title></circle><circle cx="820.0" cy="215.45454545454544" fill="#FCD34D" r="4"><title>Jan: 5 repos</title></circle><polygon fill="#0EA5E9" opacity="0.1" points="500.0,237.27272727272728 529.0909090909091,259.09090909090907 558.1818181818181,226.36363636363637 587.2727272727273,204.54545454545456 616.3636363636364,248.1818181818182 645.4545454545455,204.54545454545456 674.5454545454545,215.45454545454544 703.6363636363636,182.72727272727272 732.7272727272727,193.63636363636363 761.8181818181818,193.63636363636363 790.9090909090909,150.0 820.0,215.45454545454544 820,270 500,270" /><text fill="#C9D1D9" font-family="Arial, sans-serif" font-size="12px" x="500" y="290">Feb</text><text fill="#C9D1D9" font-family="Arial, sans-serif" font-size="12px" text-anchor="end" x="820" y="290">Jan</text><text fill="#30363D" font-family="Arial, sans-serif" font-size="12px" x="500" y="300">Peak: 11 repos (Dec)</text><text fill="#30363D" font-family="Arial, sans-serif" font-size="10px" opacity="0.7" text-anchor="end" x="890" y="410">⚡ Generated with Stats Spark</text></svg>